<?xml version="1.0" encoding="UTF-8"?>
<svg width="534px" height="646px" viewBox="0 0 534 646" version="1.1" xmlns="http://www.w3.org/2000/svg" xmlns:xlink="http://www.w3.org/1999/xlink">
    <!-- Generator: Sketch 55 (78076) - https://sketchapp.com -->
    <title>Group 3</title>
    <desc>Created with Sketch.</desc>
    <g id="Page-1" stroke="none" stroke-width="1" fill="none" fill-rule="evenodd">
        <g id="Home" transform="translate(-98.000000, -4275.000000)">
            <g id="Group-3" transform="translate(98.000000, 4276.000000)">
                <path d="M331.984842,500.63834 C343.29409,515.624263 350,534.279007 350,554.5 C350,603.929485 309.929485,644 260.5,644 C211.070515,644 171,603.929485 171,554.5 C171,511.00003 202.033493,474.748321 243.168502,466.67685 C224.470421,446.958801 213,420.31893 213,391 C213,373.019574 217.314029,356.046744 224.963489,341.060107 C139.001062,332.048807 72,259.348872 72,171 C72,76.5593078 148.559308,0 243,0 C337.440692,0 414,76.5593078 414,171 C414,217.125065 395.737776,258.984759 366.049426,289.742985 C405.406317,306.496823 433,345.525987 433,391 C433,448.726302 388.533743,496.066954 331.984842,500.63834 Z" id="Combined-Shape" stroke="#008CCE"></path>
                <text id="Expérience-&amp;-Pratiqu" font-family="Montserrat-SemiBold, Montserrat" font-size="22" font-weight="500" fill="#008CCE">
                    <tspan x="125.187" y="179">Expérience &amp; Pratique</tspan>
                </text>
                <g id="stats" transform="translate(214.000000, 216.000000)" fill="#008CCE" fill-rule="nonzero">
                    <path d="M57.0335939,56.0715714 L52.2002039,56.0715714 L52.2002039,26.1815491 C52.2002039,25.6493584 51.7681475,25.2173913 51.2335712,25.2173913 L45.4335486,25.2173913 C44.8989723,25.2173913 44.4669159,25.6493584 44.4669159,26.1815491 L44.4669159,56.0715714 L42.5335372,56.0715714 L42.5335372,39.6803235 C42.5335372,39.1481328 42.1014809,38.7161657 41.5669046,38.7161657 L35.8470853,38.7161657 C35.312509,38.7161657 34.8804527,39.1481328 34.8804527,39.6803235 L34.8804527,56.0716844 L32.8668706,56.0716844 L32.8668706,33.8951506 C32.8668706,33.3629599 32.4348142,32.9309928 31.9002379,32.9309928 L26.1002152,32.9309928 C25.5656389,32.9309928 25.1335826,33.3629599 25.1335826,33.8951506 L25.1335826,56.0716844 L23.2000906,56.0716844 L23.2000906,37.7518949 C23.2000906,37.2197042 22.7680343,36.7877371 22.2334579,36.7877371 L16.4334353,36.7877371 C15.898859,36.7877371 15.4668026,37.2197042 15.4668026,37.7518949 L15.4668026,56.0715714 L13.533424,56.0715714 L13.533424,45.4653834 C13.533424,44.9331927 13.1013676,44.5012256 12.5667913,44.5012256 L6.76676862,44.5012256 C6.23219231,44.5012256 5.80013594,44.9331927 5.80013594,45.4653834 L5.80013594,56.0715714 L0.966632682,56.0715714 C0.432056375,56.0715714 0,56.5035385 0,57.0357292 C0,57.5679199 0.432056375,58 0.966632682,58 L6.76665534,58 C7.30123165,58 7.73328802,57.5680329 7.73328802,57.0358422 L7.73328802,46.4296542 L11.6000453,46.4296542 L11.6000453,57.0358422 C11.6000453,57.5680329 12.0321017,58 12.566678,58 L16.433322,58 C16.9678983,58 17.3999547,57.5680329 17.3999547,57.0358422 L17.3999547,38.7160527 L21.2665987,38.7160527 L21.2665987,57.0357292 C21.2665987,57.5679199 21.6986551,57.999887 22.2332314,57.999887 L26.100102,57.999887 C26.6346783,57.999887 27.0667346,57.5679199 27.0667346,57.0357292 L27.0667346,34.8593085 L30.9333786,34.8593085 L30.9333786,57.0358422 C30.9333786,57.5680329 31.365435,58 31.9000113,58 L35.8469721,58 C36.3815484,58 36.8136047,57.5680329 36.8136047,57.0358422 L36.8136047,40.6444813 L40.6001586,40.6444813 L40.6001586,57.0358422 C40.6001586,57.5680329 41.032215,58 41.5667913,58 L45.4334353,58 C45.9680116,58 46.400068,57.5680329 46.400068,57.0358422 L46.400068,27.1457069 L50.266712,27.1457069 L50.266712,57.0357292 C50.266712,57.5679199 50.6987684,57.999887 51.2333447,57.999887 L57.0333673,57.999887 C57.5679436,57.999887 58,57.5679199 58,57.0357292 C58,56.5035385 57.5681702,56.0715714 57.0335939,56.0715714 Z" id="Path"></path>
                    <path d="M3.86664401,36.5652174 C5.99917187,36.5652174 7.73328802,34.8389335 7.73328802,32.7162887 C7.73328802,32.2620806 7.63949078,31.8329058 7.49449021,31.4278623 L26.4857128,12.5236493 C27.1642702,13.105843 28.0363126,13.4714196 29,13.4714196 C29.7172997,13.4714196 30.3804507,13.263598 30.9564881,12.9239568 L35.3500053,17.2973447 C35.0097071,17.8708558 34.8000227,18.5309685 34.8000227,19.2448691 C34.8000227,21.3676266 36.5342521,23.0937978 38.6666667,23.0937978 C40.7991945,23.0937978 42.5333107,21.3675138 42.5333107,19.2448691 C42.5333107,18.5327727 42.3245325,17.8746897 41.9861601,17.3020808 L52.1807195,7.15231155 C52.7568701,7.49105065 53.4190016,7.69785742 54.133356,7.69785742 C56.2658839,7.69785742 58,5.97157348 58,3.84892871 C58.0002266,1.72628394 56.2659971,0 54.1335826,0 C52.001168,0 50.2669385,1.72628394 50.2669385,3.84892871 C50.2669385,4.56102506 50.4757167,5.21910809 50.8140891,5.791717 L40.6186235,15.9414862 C40.0434924,15.6027471 39.3812476,15.3959404 38.6668932,15.3959404 C37.9544647,15.3959404 37.294259,15.601845 36.7200341,15.9386672 L32.3207395,11.5604304 C32.6591119,10.9888364 32.8668706,10.3316554 32.8668706,9.62249091 C32.8668706,7.49973338 31.1326411,5.77356221 29.0002266,5.77356221 C26.8676987,5.77356221 25.1335826,7.49984614 25.1335826,9.62249091 C25.1335826,10.076699 25.2273798,10.5058738 25.3723804,10.9109173 L6.38104446,29.8150176 C5.70237384,29.2329366 4.83044465,28.8672472 3.86664401,28.8672472 C1.73422943,28.8672472 0,30.5935311 0,32.7161759 C0,34.8388207 1.73422943,36.5652174 3.86664401,36.5652174 Z M54.1335826,1.92452074 C55.1988836,1.92452074 56.0669612,2.78760632 56.0669612,3.84904147 C56.0669612,4.91036386 55.1988836,5.77356221 54.1335826,5.77356221 C53.6058031,5.77356221 53.1282075,5.56089178 52.7792999,5.21933361 C52.7754483,5.21549968 52.7744288,5.20974878 52.7705772,5.20591485 C52.7667257,5.20208092 52.7609483,5.20106606 52.7569834,5.19723213 C52.4138532,4.84981029 52.2002039,4.37451558 52.2002039,3.84915423 C52.2002039,2.78760632 53.067262,1.92452074 54.1335826,1.92452074 Z M38.6667799,17.3203483 C39.732081,17.3203483 40.6001586,18.1834339 40.6001586,19.2448691 C40.6001586,20.3061914 39.732081,21.1693898 38.6667799,21.1693898 C37.6005727,21.1693898 36.7334013,20.3063042 36.7334013,19.2448691 C36.7335146,18.1834339 37.6005727,17.3203483 38.6667799,17.3203483 Z M29.0001133,7.69797018 C30.0663206,7.69797018 30.9334919,8.56105576 30.9334919,9.62249091 C30.9334919,10.6838133 30.0664339,11.5470116 29.0001133,11.5470116 C27.933906,11.5470116 27.0667346,10.6839261 27.0667346,9.62249091 C27.0667346,8.56105576 27.933906,7.69797018 29.0001133,7.69797018 Z M3.86664401,30.7917679 C4.93194505,30.7917679 5.80002266,31.6548535 5.80002266,32.7162887 C5.80002266,33.7776111 4.93194505,34.6408094 3.86664401,34.6408094 C2.80043672,34.6408094 1.93326536,33.7777238 1.93326536,32.7162887 C1.93337865,31.6548535 2.80043672,30.7917679 3.86664401,30.7917679 Z" id="Shape"></path>
                </g>
                <g id="paint-brush" transform="translate(272.000000, 79.000000)" fill="#008CCE" fill-rule="nonzero">
                    <path d="M14.845168,50.1081484 C15.0210938,50.2435195 15.2279453,50.3082031 15.4338906,50.3082031 C15.7238906,50.3082031 16.0100391,50.1787227 16.2014844,49.9312031 C16.9853906,48.911332 17.4001133,47.6905 17.4001133,46.4 C17.4001133,45.182 17.0269648,44.0162227 16.3203164,43.0282969 C16.0100391,42.5943164 15.4057969,42.4928164 14.9718164,42.804 C14.5378359,43.1151836 14.4372422,43.7185195 14.7475195,44.1525 C15.2183164,44.8107773 15.4667422,45.588 15.4667422,46.4 C15.4667422,47.2603711 15.1902227,48.0732773 14.6682227,48.7528516 C14.3424258,49.1762969 14.4217227,49.7833711 14.845168,50.1081484 Z" id="Path"></path>
                    <path d="M55.1,0 C53.9632227,0 52.7597227,1.00537109 52.577,1.16679688 C52.4513711,1.26444531 39.8276484,11.0055 28.3165742,22.5165742 C22.5658516,28.2672969 18.9128711,32.6772227 16.8605547,35.3635742 C16.5366836,35.7879258 16.6179062,36.3940937 17.0422578,36.7188711 C17.4666094,37.0417227 18.0736836,36.9605 18.3975547,36.537168 C19.1225547,35.5878711 20.0601836,34.4114453 21.216332,33.0397227 C21.8069805,33.2997031 22.7562773,33.7898711 23.4832031,34.5167969 C24.244,35.2775938 24.7167227,36.2152227 24.9622031,36.8020195 C21.5199258,39.7213906 19.4029258,41.1780742 18.9359805,41.4893711 C18.9302031,41.4923164 18.9225,41.4923164 18.9157031,41.4951484 C18.8944062,41.5057969 18.8828516,41.5260742 18.8625742,41.5386484 C18.8538516,41.5444258 18.8325547,41.5580195 18.8316484,41.5589258 C18.8200937,41.5666289 18.8142031,41.5792031 18.803668,41.586 C18.7176875,41.6488711 18.6422422,41.7165 18.5832227,41.7996484 C18.5503711,41.8450742 18.5300937,41.8943516 18.5058516,41.9436289 C18.4807031,41.9967578 18.4517031,42.0470547 18.4362969,42.1041484 C18.4092227,42.1969258 18.4034453,42.2926484 18.4043516,42.3902969 C18.4053711,42.4077422 18.4014062,42.4250742 18.403332,42.4425195 C18.4139805,42.598168 18.4497773,42.7527969 18.5406289,42.8939453 C18.5455,42.9016484 18.5521836,42.9074258 18.5570547,42.9142227 C19.0616094,43.9272969 19.3332578,45.1269453 19.3332578,46.4 C19.3332578,50.0008711 16.7861289,53.1772773 13.2761094,53.9515547 C12.8856289,54.0375352 6.83233203,55.0642031 2.14498047,55.8549062 C2.93477734,51.1684609 3.96235156,45.1133516 4.05025781,44.7169805 C4.82748047,41.2109258 8.00196094,38.6666289 11.5998867,38.6666289 C13.4578125,38.6666289 15.2549062,39.3355547 16.6574414,40.5497031 C17.0604961,40.8996289 17.6705156,40.8542031 18.0204414,40.4511484 C18.3703672,40.0480937 18.3259609,39.437168 17.922793,39.0881484 C16.168293,37.5695 13.9227188,36.7333711 11.5997734,36.7333711 C7.10284766,36.7333711 3.13471875,39.9146484 2.16321875,44.2975 C2.02614844,44.9132969 0.219425781,55.651 0.01359375,56.8728516 C-0.0386289062,57.1812031 0.0619648438,57.495332 0.283316406,57.7167969 C0.466039063,57.8995195 0.712539063,58 0.966742188,58 C1.01987109,58 1.07311328,57.9961484 1.12726172,57.9865195 C2.34911328,57.7805742 13.0791133,55.9748711 13.6929844,55.8405195 C18.0816133,54.8709453 21.2668555,50.9008906 21.2668555,46.4001133 C21.2668555,45.0893359 21.0233008,43.8365586 20.5757266,42.7113359 C22.3969492,41.4363555 27.6527461,37.5145586 35.4836523,29.6835391 C46.9945,18.1723516 56.735668,5.54862891 56.7897031,5.47612891 C56.9907773,5.24809375 58,4.05512891 58,2.9 C58,1.30114844 56.6988516,0 55.1,0 Z M55.3010742,4.24362891 C55.2044453,4.36835156 45.5396289,16.8934062 34.1165742,28.3165742 C31.2020742,31.2310742 28.6404453,33.5994453 26.4857227,35.4882969 C26.1387422,34.7816484 25.6099453,33.9097227 24.850168,33.1499453 C24.1096484,32.4095391 23.2280937,31.8729258 22.5224648,31.5172227 C24.4084844,29.3567227 26.7671133,26.7998516 29.6835391,23.8834258 C41.1026289,12.4642227 53.6306289,2.79555469 53.8037227,2.66029688 C54.1875195,2.32385156 54.8370742,1.93337109 55.1,1.93337109 C55.6326484,1.93337109 56.0666289,2.36735156 56.0666289,2.9 C56.0666289,3.16972266 55.6848711,3.80477734 55.3010742,4.24362891 Z" id="Shape"></path>
                </g>
                <g id="hammer" transform="translate(156.000000, 79.000000)" fill="#008CCE" fill-rule="nonzero">
                    <path d="M51.5078516,18.3386484 L41.6555547,8.48544531 C40.9450547,7.77392578 39.8131484,7.73439062 39.0562031,8.36264844 L37.062,9.36020312 L36.279,8.57720312 L37.3404453,6.45827734 C37.9919258,5.12042578 37.4323164,4.263 37.0397969,3.86957422 L33.7357227,0.566519531 C33.3712969,0.201074219 32.886,0 32.3688711,0 L32.3669453,0 C31.8507227,0 31.3654258,0.201074219 31.0020195,0.566519531 L22.7998906,8.76864844 C22.4344453,9.13307422 22.2333711,9.61927734 22.2333711,10.1355 C22.2333711,10.6517227 22.4344453,11.1370195 22.7998906,11.5023516 L26.1174453,14.8199063 C26.5040742,15.2075547 27.3537969,15.7594609 28.7003711,15.1022031 L30.8105742,14.0456289 L31.5935742,14.8286289 L30.5960195,16.822832 C30.3089648,17.1678867 30.1522969,17.6000547 30.1522969,18.055332 C30.1522969,18.5715547 30.3533711,19.0568516 30.7188164,19.4221836 L34.6493359,23.3516836 C35.0263359,23.7286836 35.6382813,23.7286836 36.0161875,23.3516836 C36.3931875,22.9736641 36.3931875,22.361832 36.0161875,21.984832 L32.085668,18.055332 C32.1600937,17.9818125 32.2210391,17.8968516 32.2673711,17.8039609 L33.6342227,15.0692383 C33.8197773,14.6971094 33.7472773,14.2476094 33.4525195,13.9537578 L31.6845391,12.1857773 C31.3906875,11.8919258 30.9392617,11.8213516 30.5690586,12.0049805 L27.8430586,13.369 C27.6014297,13.4879453 27.5046875,13.4753711 27.4844102,13.4530547 L24.1668555,10.1355 L32.3689844,1.93337109 L35.7029648,5.27222266 C35.7029648,5.27312891 35.7193906,5.36987109 35.6063359,5.60187109 L34.2384648,8.33659375 C34.0529102,8.70781641 34.1254102,9.15822266 34.4192617,9.45207422 L36.1872422,11.2191484 C36.4830195,11.5140195 36.9325195,11.5855 37.3037422,11.4008516 L40.0374453,10.034 C40.1302227,9.98664844 40.2152969,9.92672266 40.2888164,9.85229688 L50.2068164,19.7654258 C50.2658359,19.8147031 56.0667422,24.6973516 56.0667422,29.9666289 C56.0667422,32.0817031 56.0667422,33.5790547 55.3349453,35.6845 C52.867,27.6292969 48.1139453,24.4663711 47.8925938,24.3222773 C47.6209453,24.145332 47.2778164,24.1173516 46.9810195,24.246832 L41.267,26.7398125 C40.9692969,26.8703125 40.8010742,26.8654414 40.7865742,26.8683867 L38.3853516,24.4517578 C38.2045547,24.2681289 37.9687031,24.1231289 37.7,24.1666289 C37.4428516,24.1666289 37.1973711,24.2681289 37.0165742,24.449832 L6.04355469,55.4247773 C5.88303516,55.6036484 5.35242578,56.0666289 4.83325781,56.0666289 C4.29970313,56.0666289 3.7863125,55.6122578 3.5833125,55.3832031 L2.57510938,54.3769258 C2.39623828,54.2164063 1.93325781,53.6857969 1.93325781,53.1666289 C1.93325781,52.6581094 2.41277734,52.1042773 2.61668359,51.9166836 L31.1256094,23.4077578 C31.5036289,23.0297383 31.5036289,22.4179062 31.1256094,22.0409062 C30.7486094,21.6628867 30.1366641,21.6628867 29.7587578,22.0409062 L1.2905,50.5112031 C1.15807422,50.6291289 0,51.7031484 0,53.1666289 C0,54.6505 1.16385156,55.7109258 1.24994531,55.7834258 L2.16151953,56.6901289 C2.27355469,56.8244805 3.31087109,58 4.83337109,58 C6.31724219,58 7.37766797,56.8361484 7.45016797,56.7500547 L37.6980742,26.5021484 L39.4177969,28.2334258 C40.049,28.8646289 41.0050938,28.9671484 42.0412773,28.5108516 L47.2361289,26.2439805 C48.517,27.2822031 52.5373516,31.0714609 54.1526289,38.862832 C54.2366836,39.2658867 54.566332,39.5714063 54.9752773,39.6255547 C55.3774258,39.6739258 55.7804805,39.4670742 55.9642227,39.0986836 C58,35.0281484 58,32.9053711 58,29.9666289 C58,23.7829453 51.7089258,18.4990547 51.5078516,18.3386484 Z" id="Path"></path>
                </g>
                <text id="Intéractions" font-family="Montserrat-SemiBold, Montserrat" font-size="22" font-weight="500" fill="#008CCE">
                    <tspan x="255.124" y="376">Intéractions</tspan>
                </text>
                <text id="Formation-traditionn" font-family="Montserrat-SemiBold, Montserrat" font-size="18" font-weight="500" fill="#008CCE">
                    <tspan x="211.855" y="525">Formation </tspan>
                    <tspan x="197.707" y="547">traditionnelle</tspan>
                </text>
                <g id="handshake" transform="translate(294.000000, 391.000000)" fill="#008CCE" fill-rule="nonzero">
                    <path d="M15.4543945,26.6711641 C15.4543945,27.188293 15.656375,27.6735898 16.0218203,28.0380156 L16.7052461,28.7214414 C17.6187461,29.6339219 18.8309688,30.1366641 20.122375,30.1366641 C21.4138945,30.1366641 22.6270234,29.6340352 23.5405234,28.7214414 L28.355543,23.9064219 C30.2627461,25.4994961 32.6436914,26.3665508 35.1570625,26.3665508 L35.1619336,26.3665508 C38.0029141,26.364625 40.6768047,25.2558281 42.6884531,23.2432734 C43.0664727,22.8653672 43.0664727,22.2534219 42.6884531,21.8764219 C42.3104336,21.4984023 41.6995078,21.4984023 41.3216016,21.8764219 C39.6743789,23.5236445 37.4858984,24.4322734 35.1610273,24.433293 L35.158082,24.433293 C32.8351367,24.433293 30.6515273,23.5285156 29.0090625,21.8861641 C28.631043,21.5091641 28.0192109,21.5091641 27.6422109,21.8861641 L22.1727656,27.3545898 C21.0784688,28.449793 19.1674141,28.449793 18.0722109,27.3545898 L17.3887852,26.6711641 L29.0090625,15.0508867 C30.0927109,13.9672383 31.1222109,13.9672383 32.4261914,13.9672383 C33.822043,13.9672383 35.5611367,13.9672383 37.2111914,12.3171836 L39.9448945,9.58246094 C40.3228008,9.20455469 40.3228008,8.59260938 39.9448945,8.21560938 C39.5678945,7.83758984 38.9559492,7.83758984 38.578043,8.21560938 L35.8443398,10.950332 C34.7597852,12.0339805 33.7302852,12.0339805 32.4261914,12.0339805 C31.0303398,12.0339805 29.2922656,12.0339805 27.6422109,13.6840352 L16.0227266,25.303293 C15.656375,25.6687383 15.4543945,26.1540352 15.4543945,26.6711641 Z" id="Path"></path>
                    <path d="M8.70022656,10.6360898 C9.76642969,10.6360898 10.6335977,9.76903516 10.6335977,8.70271875 C10.6335977,7.63651563 9.76654297,6.76934766 8.70022656,6.76934766 C7.63402344,6.76934766 6.76685547,7.63640234 6.76685547,8.70271875 C6.76685547,9.76903516 7.63402344,10.6360898 8.70022656,10.6360898 Z" id="Path"></path>
                    <path d="M18.0720977,13.6840352 L20.8058008,16.4177383 C20.995207,16.6072578 21.2427266,16.7009414 21.4892266,16.7009414 C21.7367461,16.7009414 21.9841523,16.6071445 22.1726523,16.4177383 C22.5506719,16.0407383 22.5506719,15.428793 22.1726523,15.0508867 L19.4389492,12.3171836 C19.0619492,11.9392773 18.4500039,11.9392773 18.0720977,12.3171836 C17.6950977,12.6941836 17.6950977,13.3060156 18.0720977,13.6840352 Z" id="Path"></path>
                    <path d="M49.3002266,6.76946094 C50.3655234,6.76946094 51.2335977,5.90240625 51.2335977,4.83608984 C51.2335977,3.76988672 50.3655234,2.90271875 49.3002266,2.90271875 C48.2349297,2.90271875 47.3668555,3.76977344 47.3668555,4.83608984 C47.3668555,5.90229297 48.2349297,6.76946094 49.3002266,6.76946094 Z" id="Path"></path>
                    <path d="M51.5168008,20.5860352 C49.9459297,22.1569062 49.4065977,24.7155898 48.8855039,27.190332 C48.4234297,29.3866289 47.9449297,31.6592773 46.7810781,32.8231289 L45.413207,34.1899805 C45.036207,34.568 45.036207,35.179832 45.413207,35.556832 C45.6026133,35.7463516 45.8501328,35.8400352 46.0976523,35.8400352 C46.3441523,35.8400352 46.5916719,35.7462383 46.7810781,35.556832 L48.1479297,34.1899805 C49.7177812,32.6201289 50.256207,30.0623516 50.7773008,27.5886289 C51.2402812,25.3904062 51.7198008,23.1177578 52.8836523,21.953 C53.2616719,21.576 53.2616719,20.9640547 52.8836523,20.5861484 C52.5057461,20.2080156 51.8948203,20.2080156 51.5168008,20.5860352 Z" id="Path"></path>
                    <path d="M57.7170234,20.5860352 L41.9670781,4.83608984 L45.1502813,1.65288672 C45.5283008,1.27486719 45.5283008,0.663941406 45.1502813,0.286035156 C44.7722617,-0.0918710938 44.1613359,-0.0918710938 43.7834297,0.286035156 L39.9168008,4.15266406 C39.5387813,4.53068359 39.5387813,5.14160937 39.9168008,5.51951563 L56.3501719,21.9528867 C56.5386719,22.1413867 56.7861914,22.2360898 57.0335977,22.2360898 C57.2810039,22.2360898 57.5285234,22.1413867 57.7170234,21.9528867 C58.0949297,21.5748672 58.0949297,20.9639414 57.7170234,20.5860352 Z" id="Path"></path>
                    <path d="M35.8442266,28.7214414 C35.466207,28.3444414 34.8552813,28.3444414 34.477375,28.7214414 C34.0994687,29.0994609 34.0994687,29.711293 34.477375,30.0893125 L44.7298945,40.341832 C45.4838945,41.095832 45.4838945,42.3225547 44.7298945,43.0765547 C43.9778203,43.8286289 42.7501914,43.8295352 41.9951719,43.0765547 L31.7426523,32.8231289 C31.3646328,32.4451094 30.7528008,32.4451094 30.3758008,32.8231289 C29.9977813,33.2011484 29.9977813,33.8129805 30.3758008,34.1899805 L43.3629297,47.1771094 C44.1169297,47.9311094 44.1169297,49.157832 43.3629297,49.9108125 C42.6089297,50.663793 41.3832266,50.665832 40.628207,49.9117187 L28.3255234,37.6080156 C27.9475039,37.2299961 27.3356719,37.2299961 26.9586719,37.6080156 C26.5806523,37.9850156 26.5806523,38.5969609 26.9586719,38.9748672 L37.8946172,49.9108125 C38.6486172,50.6648125 38.6486172,51.8915352 37.8946172,52.6455352 C37.1638398,53.3763125 35.8916914,53.3763125 35.1609141,52.6446289 L33.793043,51.2777773 L33.7920234,51.2777773 L24.907375,42.3931289 C24.5293555,42.0152227 23.9175234,42.0152227 23.5405234,42.3931289 C23.1626172,42.7701289 23.1626172,43.3820742 23.5405234,43.7599805 L32.4260781,52.6455352 C32.7915234,53.0109805 32.9925977,53.4961641 32.9925977,54.0134063 C32.9925977,54.5296289 32.7915234,55.0149258 32.4260781,55.3802578 C31.6740039,56.132332 30.446375,56.1342578 29.692375,55.3792383 L13.2503945,38.9526641 C10.7438203,36.4460898 10.1996172,33.2861094 9.71919141,30.4972383 C9.31511719,28.1511836 8.93324609,25.9355156 7.45039453,24.4526641 C7.072375,24.0746445 6.46144922,24.0746445 6.08354297,24.4526641 C5.70563672,24.8306836 5.70552344,25.4416094 6.08354297,25.8195156 C7.13241406,26.8683867 7.44846875,28.7020703 7.81391406,30.8258672 C8.31654297,33.7452383 8.94298828,37.3788477 11.883543,40.3195156 L28.3255234,56.7471094 C29.0785039,57.5000898 30.0684688,57.8781094 31.0592266,57.8781094 C32.0490781,57.8770898 33.0399492,57.5000898 33.7929297,56.7471094 C34.3420039,56.1971289 34.7064297,55.5116641 34.8533555,54.7654805 C36.2705039,55.4489063 38.1158555,55.1599258 39.2613555,54.0125 C39.8113359,53.4625195 40.1748555,52.7761484 40.3217812,52.0298516 C41.759207,52.7200742 43.5397617,52.4677969 44.7297812,51.2777773 C46.2377812,49.7707969 46.2377812,47.3182578 44.7297812,45.8102578 L44.3634297,45.4428867 C44.9984844,45.2737578 45.5997812,44.9402578 46.0976523,44.4434063 C47.6046328,42.9354062 47.6046328,40.4819609 46.0976523,38.9749805 L35.8442266,28.7214414 Z" id="Path"></path>
                    <path d="M18.0836523,8.01929297 L12.2836523,2.21929297 C11.9057461,1.84127344 11.294707,1.84127344 10.9168008,2.21929297 C10.5387812,2.59719922 10.5387812,3.20823828 10.9168008,3.58614453 L16.033375,8.70271875 L0.283429687,24.4526641 C-0.0944765625,24.8306836 -0.0944765625,25.4416094 0.283429687,25.8195156 C0.471929687,26.0080156 0.719449219,26.1027187 0.966855469,26.1027187 C1.21426172,26.1027187 1.46178125,26.0080156 1.65028125,25.8195156 L18.0836523,9.38625781 C18.4616719,9.00823828 18.4616719,8.3973125 18.0836523,8.01929297 Z" id="Path"></path>
                    <path d="M23.7753555,55.8905898 C23.2369297,56.1728867 22.3176523,56.2066445 21.4892266,55.3801445 C20.6608008,54.5506992 20.6675977,53.5870156 20.9363008,53.1674219 C21.2030781,52.751793 21.1141523,52.2027188 20.7284297,51.8924414 C20.3446328,51.5821641 19.788875,51.6111641 19.4389492,51.9619961 C18.6839297,52.7159961 17.4563008,52.7149766 16.7042266,51.9619961 C15.9512461,51.2079961 15.9512461,49.9812734 16.7042266,49.2272734 C16.8937461,49.0387734 16.9874297,48.7912539 16.9874297,48.5438477 C16.9874297,48.2964414 16.8936328,48.0498281 16.7042266,47.8604219 C16.3272266,47.4834219 15.7152812,47.4834219 15.337375,47.8604219 L14.6539492,48.5438477 C13.9009687,49.2978477 12.6732266,49.2978477 11.9202461,48.5438477 C11.1672656,47.7898477 11.1672656,46.563125 11.9202461,45.8101445 L12.6036719,45.1267187 C12.9478203,44.7835898 12.9825977,44.2383672 12.6868203,43.8536641 C12.391043,43.4689609 11.854543,43.3636094 11.4359687,43.6061445 C10.9101172,43.909625 9.98494922,43.8739414 9.18654297,43.0764414 C8.33783984,42.2277383 8.34169141,41.2871641 8.61526562,40.890793 C8.91874609,40.4519414 8.80761719,39.8497383 8.36876562,39.5461445 C7.92889453,39.2416445 7.32771094,39.3527734 7.02411719,39.7926445 C6.24213672,40.9255703 6.26332031,42.8869219 7.81969141,44.443293 C8.43254297,45.0552383 9.09954297,45.4205703 9.75691406,45.5955898 C9.53646875,46.0866641 9.42046875,46.6231641 9.42046875,47.1771094 C9.42046875,48.2095547 9.82261719,49.1810547 10.5533945,49.9108125 C11.5451719,50.9036094 12.9478203,51.2428867 14.220875,50.9287578 C14.2963203,51.8045352 14.6684492,52.6600352 15.337375,53.3289609 C16.2992461,54.2898125 17.642875,54.6378125 18.8821719,54.3748867 C19.0020234,55.175332 19.3896719,56.0133867 20.122375,56.7471094 C21.0165039,57.640332 22.0605039,57.9979609 23.0136523,57.9979609 C23.6255977,57.9979609 24.199707,57.8500156 24.6724297,57.6026094 C25.1451523,57.3550898 25.327875,56.7712383 25.0794492,56.2976094 C24.8319297,55.825793 24.2461523,55.6421641 23.7753555,55.8905898 Z" id="Path"></path>
                </g>
                <g id="books" transform="translate(231.000000, 561.000000)" fill="#008CCE" fill-rule="nonzero">
                    <path d="M28.9435828,25.1334844 C30.1602261,25.1334844 31.2194893,24.6752617 31.8379298,24.3349648 C32.4563704,24.6752617 33.5156335,25.1334844 34.7322768,25.1334844 C36.528694,25.1334844 38.5364211,24.1107812 39.3940975,22.7699844 C39.4790058,22.6414102 41.4857154,19.5684297 41.4857154,14.5001133 C41.4857154,10.7687422 38.4562612,7.73348437 34.7322768,7.73348437 C33.6411306,7.73348437 32.646425,8.13461328 31.8379298,8.56100391 C31.0294347,8.13472656 30.034729,7.73348437 28.9435828,7.73348437 C25.2194854,7.73348437 22.1901442,10.7688555 22.1901442,14.5001133 C22.1901442,20.2276133 23.9682456,22.4529102 24.3551384,22.8676328 C25.2271735,23.967707 27.0178246,25.1334844 28.9435828,25.1334844 Z M28.9435828,9.66685547 C29.8041988,9.66685547 30.6840351,10.1134102 31.3545965,10.5029844 C31.6536413,10.6769844 32.0222183,10.6769844 32.3212632,10.5029844 C32.9918246,10.1134102 33.8716608,9.66685547 34.7322768,9.66685547 C37.3921365,9.66685547 39.5562261,11.8350586 39.5562261,14.5002266 C39.5562261,18.9487813 37.8051462,21.6728555 37.7791423,21.7115977 C37.3285965,22.4153008 35.9672359,23.2002266 34.7323899,23.2002266 C33.4888382,23.2002266 32.4207563,22.4298008 32.4139727,22.4249297 C32.2432515,22.297375 32.0406472,22.2334844 31.8380429,22.2334844 C31.6354386,22.2334844 31.4328343,22.2972617 31.2621131,22.4249297 C31.2514854,22.4326328 30.1873606,23.2002266 28.9436959,23.2002266 C27.714616,23.2002266 26.4313801,22.3969492 25.8477622,21.6419297 C25.8284288,21.6167812 25.7956413,21.5800781 25.7734815,21.5568555 C25.7570877,21.5394102 24.1198596,19.7414102 24.1198596,14.5002266 C24.1196335,11.8350586 26.2836101,9.66685547 28.9435828,9.66685547 Z" id="Shape"></path>
                    <path d="M31.0111189,6.29798437 C31.1915634,6.59953906 31.510846,6.76685547 31.8389474,6.76685547 C32.0077466,6.76685547 32.1794854,6.72233594 32.3348304,6.62865234 C32.7911423,6.35417188 32.9397037,5.76057813 32.6647407,5.30235547 L29.7703938,0.468984375 C29.4963353,0.01178125 28.9040117,-0.137070312 28.4466823,0.138429688 C27.9903704,0.412910156 27.841809,1.00650391 28.1167719,1.46472656 L31.0111189,6.29798437 Z" id="Path"></path>
                    <path d="M34.0231618,6.15876172 C34.0906589,6.18096484 34.7062729,6.37920703 35.5205341,6.37920703 L35.5215517,6.37920703 C36.6754464,6.37920703 37.6788577,5.98476172 38.4207602,5.24050391 C40.1863119,3.47150391 39.3720507,0.940800781 39.3363236,0.833410156 C39.239883,0.545335937 39.0141014,0.319113281 38.7265887,0.222484375 C38.6580741,0.20028125 38.0425731,0.0020390625 37.2272943,0.0020390625 C36.0733996,0.0020390625 35.0710058,0.395464844 34.3280858,1.13983594 C32.5625341,2.90985547 33.3778129,5.43953906 33.4125224,5.54692969 C33.5088499,5.83591016 33.7346316,6.06213281 34.0231618,6.15876172 Z M35.6921598,2.5066875 C36.070347,2.12776172 36.5864678,1.93541016 37.2271813,1.93541016 C37.363193,1.93541016 37.4915166,1.94413281 37.6053684,1.95761328 C37.6642729,2.47859375 37.6372515,3.29161328 37.05646,3.87353906 C36.6782729,4.25246484 36.1611345,4.44583594 35.5214386,4.44583594 C35.3854269,4.44583594 35.2571033,4.43620703 35.1432515,4.42363281 C35.084347,3.90163281 35.1113684,3.08861328 35.6921598,2.5066875 Z" id="Shape"></path>
                    <path d="M54.9927057,27.0668555 L8.683154,27.0668555 C7.0874191,27.0668555 5.78880702,28.3680039 5.78880702,29.9668555 L5.78880702,33.8334844 C5.78880702,34.3670391 6.22103704,34.8001133 6.75355166,34.8001133 C7.28606628,34.8001133 7.7182963,34.3670391 7.7182963,33.8334844 L7.7182963,29.9668555 C7.7182963,29.434207 8.1514308,29.0002266 8.68304094,29.0002266 L11.5773879,29.0002266 L11.5773879,33.8335977 C11.5773879,34.3671523 12.0096179,34.8002266 12.5421326,34.8002266 C13.0746472,34.8002266 13.5068772,34.3671523 13.5068772,33.8335977 L13.5068772,29.0002266 L38.5912554,29.0002266 L38.5912554,33.8335977 C38.5912554,34.3671523 39.0234854,34.8002266 39.556,34.8002266 C40.0885146,34.8002266 40.5207446,34.3671523 40.5207446,33.8335977 L40.5207446,29.0002266 L50.1685302,29.0002266 L50.1685302,33.8335977 C50.1685302,34.3671523 50.6007602,34.8002266 51.1332749,34.8002266 C51.6657895,34.8002266 52.0980195,34.3671523 52.0980195,33.8335977 L52.0980195,29.0002266 L54.9923665,29.0002266 C55.5239766,29.0002266 55.9571111,29.434207 55.9571111,29.9668555 L55.9571111,36.7334844 L53.0627641,36.7334844 C52.5302495,36.7334844 52.0980195,37.1665586 52.0980195,37.7001133 L52.0980195,46.4001133 L51.1332749,46.4001133 C50.6007602,46.4001133 50.1685302,46.8331875 50.1685302,47.3667422 C50.1685302,47.9002969 50.6007602,48.3333711 51.1332749,48.3333711 L54.0276218,48.3333711 L54.0276218,55.1 C54.0276218,55.6326484 53.5944873,56.0666289 53.0628772,56.0666289 L23.1548889,56.0666289 L23.1548889,51.2332578 C23.1548889,50.6997031 22.7226589,50.2666289 22.1901442,50.2666289 C21.6576296,50.2666289 21.2253996,50.6997031 21.2253996,51.2332578 L21.2253996,56.0666289 L19.2957973,56.0666289 L19.2957973,51.2332578 C19.2957973,50.6997031 18.8635673,50.2666289 18.3310526,50.2666289 C17.798538,50.2666289 17.366308,50.6997031 17.366308,51.2332578 L17.366308,56.0666289 L15.4367057,56.0666289 L15.4367057,51.2332578 C15.4367057,50.6997031 15.0044756,50.2666289 14.471961,50.2666289 C13.9394464,50.2666289 13.5072164,50.6997031 13.5072164,51.2332578 L13.5072164,56.0666289 L4.82417544,56.0666289 C4.2925653,56.0666289 3.8594308,55.6326484 3.8594308,55.1 L3.8594308,51.2333711 C3.8594308,50.6998164 3.42720078,50.2667422 2.89468616,50.2667422 C2.36217154,50.2667422 1.92994152,50.6998164 1.92994152,51.2333711 L1.92994152,55.1 C1.92994152,56.6988516 3.22855361,58 4.8242885,58 L53.0634425,58 C54.6591774,58 55.9577895,56.6988516 55.9577895,55.1 L55.9577895,48.3333711 C55.9577895,47.0776484 54.9641014,46.4 54.0281871,46.4 L54.0281871,38.6666289 L55.9577895,38.6666289 C56.8935906,38.6666289 57.8873918,37.9889805 57.8873918,36.7332578 L57.8873918,29.9666289 C57.8870526,28.3680039 56.5884405,27.0668555 54.9927057,27.0668555 Z" id="Path"></path>
                    <path d="M37.6266238,48.3334844 C38.1591384,48.3334844 38.5913684,47.9004102 38.5913684,47.3668555 C38.5913684,46.8333008 38.1591384,46.4002266 37.6266238,46.4002266 L27.0139805,46.4002266 L27.0139805,38.6668555 L40.5209708,38.6668555 L40.5209708,53.1668555 C40.5209708,53.5235781 40.7167914,53.8513008 41.0304211,54.0194102 C41.3430331,54.1866133 41.7250643,54.1682617 42.0212827,53.9710391 L44.3801754,52.3954102 L46.7390682,53.9710391 C46.9011969,54.0793359 47.0874074,54.1334844 47.2745224,54.1334844 C47.4307719,54.1334844 47.5871345,54.0957617 47.7299298,54.0194102 C48.0434464,53.8511875 48.2393801,53.5234648 48.2393801,53.1668555 L48.2393801,38.6668555 L49.2041248,38.6668555 C49.7366394,38.6668555 50.1688694,38.2337812 50.1688694,37.7002266 C50.1688694,37.1666719 49.7366394,36.7335977 49.2041248,36.7335977 L2.8945731,36.7335977 C1.27181676,36.7335977 0.000226120858,38.0076719 0.000226120858,39.6335977 L0.000226120858,45.4335977 C0.000226120858,47.0324492 1.29883821,48.3335977 2.8945731,48.3335977 L37.6266238,48.3335977 L37.6266238,48.3334844 Z M42.45046,38.6668555 L46.3095517,38.6668555 L46.3095517,51.3601328 L44.9154035,50.4291875 C44.5912593,50.212707 44.1686394,50.212707 43.8444951,50.4291875 L42.450347,51.3601328 L42.450347,38.6668555 L42.45046,38.6668555 Z M11.577501,38.6668555 L25.0844912,38.6668555 L25.0844912,46.4002266 L11.577501,46.4002266 L11.577501,38.6668555 Z M1.92960234,45.4334844 L1.92960234,39.6334844 C1.92960234,39.0824844 2.34442105,38.6668555 2.89434698,38.6668555 L9.64778558,38.6668555 L9.64778558,46.4002266 L2.89446004,46.4002266 C2.35323977,46.4002266 1.92960234,45.9757617 1.92960234,45.4334844 Z" id="Shape"></path>
                    <path d="M20.2605419,40.6001133 C19.7280273,40.6001133 19.2957973,41.0331875 19.2957973,41.5667422 L19.2957973,43.5001133 C19.2957973,44.033668 19.7280273,44.4667422 20.2605419,44.4667422 C20.7930565,44.4667422 21.2252865,44.033668 21.2252865,43.5001133 L21.2252865,41.5667422 C21.2252865,41.0331875 20.7930565,40.6001133 20.2605419,40.6001133 Z" id="Path"></path>
                    <path d="M16.4013372,40.6001133 C15.8688226,40.6001133 15.4365926,41.0331875 15.4365926,41.5667422 L15.4365926,43.5001133 C15.4365926,44.033668 15.8688226,44.4667422 16.4013372,44.4667422 C16.9338519,44.4667422 17.3660819,44.033668 17.3660819,43.5001133 L17.3660819,41.5667422 C17.3661949,41.0331875 16.9339649,40.6001133 16.4013372,40.6001133 Z" id="Path"></path>
                </g>
                <text id="70%" font-family="Montserrat-SemiBold, Montserrat" font-size="28" font-weight="500" fill="#008CCE">
                    <tspan x="0.026" y="52">70%</tspan>
                </text>
                <text id="20%" font-family="Montserrat-SemiBold, Montserrat" font-size="28" font-weight="500" fill="#008CCE">
                    <tspan x="475.39" y="401">20%</tspan>
                </text>
                <text id="10%" font-family="Montserrat-SemiBold, Montserrat" font-size="28" font-weight="500" fill="#008CCE">
                    <tspan x="75.204" y="565">10%</tspan>
                </text>
            </g>
        </g>
    </g>
</svg>