<?xml version="1.0" encoding="UTF-8"?>
<svg width="969px" height="784px" viewBox="0 0 969 784" version="1.1" xmlns="http://www.w3.org/2000/svg" xmlns:xlink="http://www.w3.org/1999/xlink">
    <!-- Generator: Sketch 55 (78076) - https://sketchapp.com -->
    <title>Schema</title>
    <desc>Created with Sketch.</desc>
    <g id="Page-1" stroke="none" stroke-width="1" fill="none" fill-rule="evenodd">
        <g id="Home" transform="translate(-204.000000, -2218.000000)">
            <g id="Schema" transform="translate(197.000000, 2218.000000)">
                <rect id="Rectangle" stroke="#008CCE" x="337.5" y="343.5" width="370" height="103" rx="3"></rect>
                <text id="Une-Learning-Expedit" font-family="Montserrat-SemiBold, Montserrat" font-size="20" font-weight="500" fill="#008CCE">
                    <tspan x="392.87" y="389">Une Learning Expedition, </tspan>
                    <tspan x="441.77" y="413">pourquoi faire ?</tspan>
                </text>
                <path d="M523,446 L523.5,645" id="Line-6" stroke="#008CCE" stroke-linecap="square"></path>
                <path d="M257,314.75 L257,475.25" id="Line-6-Copy-2" stroke="#008CCE" stroke-linecap="square" transform="translate(257.000000, 395.250000) rotate(90.000000) translate(-257.000000, -395.250000) "></path>
                <path d="M788.25,315 L788.25,475.5" id="Line-6-Copy-3" stroke="#008CCE" stroke-linecap="square" transform="translate(788.250000, 395.250000) rotate(90.000000) translate(-788.250000, -395.250000) "></path>
                <path d="M523.5,144 L523.5,343" id="Line-6-Copy" stroke="#008CCE" stroke-linecap="square"></path>
                <text id="Trouver-de-nouvelles" font-family="Montserrat-Medium, Montserrat" font-size="20" font-weight="400" fill="#008CCE">
                    <tspan x="468.97" y="759">Trouver de </tspan>
                    <tspan x="445.6" y="783">nouvelles idées</tspan>
                </text>
                <text id="Se-mettre-en-mouveme" font-family="Montserrat-Medium, Montserrat" font-size="20" font-weight="400" fill="#008CCE">
                    <tspan x="457.67" y="95">Se mettre en </tspan>
                    <tspan x="460.46" y="119">mouvement</tspan>
                </text>
                <text id="S’aérer" font-family="Montserrat-Medium, Montserrat" font-size="20" font-weight="400" fill="#008CCE">
                    <tspan x="797.6" y="247">S’aérer</tspan>
                </text>
                <g id="branch-copy" transform="translate(331.500000, 270.500000) scale(-1, 1) translate(-331.500000, -270.500000) translate(262.000000, 197.000000)">
                    <path d="M0.5,145.743483 L137.839076,0.5 L3,0.5 C1.61928813,0.5 0.5,1.61928813 0.5,3 L0.5,145.743483 Z" id="Rectangle" stroke="#008CCE"></path>
                    <path d="M4,1 L139,1 L139,146 L1,146 L1,4 C1,2.34314575 2.34314575,1 4,1 Z" id="Rectangle" fill="#FFFFFF"></path>
                </g>
                <g id="branch-copy-2" transform="translate(331.500000, 519.500000) scale(-1, -1) translate(-331.500000, -519.500000) translate(262.000000, 446.000000)">
                    <path d="M0.5,145.743483 L137.839076,0.5 L3,0.5 C1.61928813,0.5 0.5,1.61928813 0.5,3 L0.5,145.743483 Z" id="Rectangle" stroke="#008CCE"></path>
                    <path d="M4,1 L139,1 L139,146 L1,146 L1,4 C1,2.34314575 2.34314575,1 4,1 Z" id="Rectangle" fill="#FFFFFF"></path>
                </g>
                <text id="Être-confronté-à-de" font-family="Montserrat-Medium, Montserrat" font-size="20" font-weight="400" fill="#008CCE">
                    <tspan x="108.03" y="230">Être confronté à de </tspan>
                    <tspan x="107.46" y="254">nouvelles manières </tspan>
                    <tspan x="148.3" y="278">de réfléchir</tspan>
                </text>
                <text id="Découvrir-de-nouvell" font-family="Montserrat-Medium, Montserrat" font-size="20" font-weight="400" fill="#008CCE">
                    <tspan x="12.04" y="435">Découvrir de nouvelles </tspan>
                    <tspan x="7.4" y="459">techniques d’animation</tspan>
                </text>
                <text id="Se-dépaysager-et-sor" font-family="Montserrat-Medium, Montserrat" font-size="20" font-weight="400" fill="#008CCE">
                    <tspan x="101.91" y="641">Se dépaysager et sortir </tspan>
                    <tspan x="109.39" y="665">de sa zone de confort</tspan>
                </text>
                <g id="together" transform="translate(99.000000, 340.000000)" fill="#008CCE" fill-rule="nonzero">
                    <path d="M58.8216199,44.014575 L57.7273021,38.4650097 C57.2876199,36.2349708 56.2043431,34.207694 54.5947817,32.6025029 L52.6731988,30.6864405 L52.6731988,24.1559571 C53.8741306,23.6813119 54.7263528,22.5097076 54.7263528,21.1420117 C54.7263528,20.7728304 54.6634425,20.4181404 54.5491228,20.0872573 C55.9098031,19.7031248 56.9101579,18.4512437 56.9101579,16.9693431 C56.9101579,16.5779649 56.840347,16.2025731 56.7125712,15.8548986 C57.9754932,15.4122261 58.8839552,14.2088791 58.8839552,12.7967895 C58.8839552,11.3845848 57.9754932,10.1813528 56.7125712,9.73868031 C56.840347,9.39100585 56.9101579,9.01561404 56.9101579,8.62423587 C56.9101579,6.83755945 55.4565497,5.38418129 53.6701033,5.38418129 L47.176538,5.38418129 C47.7726335,4.66410526 48.0593528,3.69802339 47.8862632,2.71664522 C47.7316901,1.83981092 47.2420936,1.07982651 46.5076413,0.57654386 C45.7733041,0.0732612086 44.887614,-0.10902924 44.01446,0.0632553606 L38.4647797,1.1575731 C36.2346257,1.59737037 34.2074639,2.68064717 32.6023879,4.29020858 L30.6863255,6.21179142 L24.1558421,6.21179142 C23.6811969,5.01085965 22.5095926,4.15863743 21.1420117,4.15863743 C20.7728304,4.15863743 20.4181404,4.22154776 20.0872573,4.33586745 C19.7031248,2.97518713 18.4512437,1.97483236 16.9694581,1.97483236 C16.5780799,1.97483236 16.2026881,2.04464327 15.8550136,2.1724191 C15.4123411,0.909497076 14.2089942,0.00103508772 12.7969045,0.00103508772 C11.3846998,0.00103508772 10.1814678,0.909612086 9.73879532,2.17253411 C9.39112086,2.04475828 9.01572904,1.97494737 8.62435088,1.97494737 C6.83778947,1.97494737 5.3842963,3.42844055 5.3842963,5.21500195 L5.3842963,11.7085673 C4.66433528,11.1125867 3.69848343,10.8259825 2.71676023,10.9989571 C1.83992593,11.1535302 1.07994152,11.6431267 0.576658869,12.3775789 C0.0733762183,13.1119162 -0.10891423,13.9974912 0.0632553606,14.8708752 L1.15780312,20.4204405 C1.59760039,22.6505945 2.68087719,24.6777563 4.29032359,26.2828324 L6.21179142,28.1988947 L6.21179142,34.7292632 C5.01074464,35.2039084 4.15840741,36.3756277 4.15840741,37.7432086 C4.15840741,38.1125049 4.22131774,38.4670799 4.33563743,38.798078 C2.97495712,39.1822105 1.97460234,40.4339766 1.97460234,41.9158772 C1.97460234,42.3073704 2.04441326,42.6827622 2.17218908,43.0304366 C0.909152047,43.4731092 0.000805068226,44.6764561 0.000805068226,46.0885458 C0.000805068226,47.5007505 0.909267057,48.7039825 2.17218908,49.14654 C2.04441326,49.4942144 1.97460234,49.8697212 1.97460234,50.2610994 C1.97460234,52.0476608 3.42821053,53.501154 5.21465692,53.501154 L11.7082222,53.501154 C11.1122417,54.22123 10.8255224,55.1871969 10.9986121,56.168575 C11.1531852,57.0454094 11.6427817,57.8053938 12.3771189,58.3085614 C12.9310058,58.6882086 13.5709201,58.8852203 14.2268207,58.8852203 C14.4403938,58.8852203 14.655807,58.8641735 14.8705302,58.8219649 L20.4202105,57.7275322 C22.6501345,57.2878499 24.6774113,56.2045731 26.2826023,54.5950117 L28.1986647,52.6734288 L34.7291481,52.6734288 C35.2037934,53.8744756 36.3753977,54.7268129 37.7430936,54.7268129 C38.1122749,54.7268129 38.4669649,54.6639025 38.797848,54.5495828 C39.1820955,55.9102632 40.4339766,56.9105029 41.9156472,56.9105029 C42.3070253,56.9105029 42.6825322,56.840692 43.0302066,56.7129162 C43.4727641,57.9759532 44.6761111,58.8843002 46.0882008,58.8843002 C47.5004055,58.8843002 48.7037524,57.9758382 49.1463099,56.7129162 C49.4939844,56.840692 49.8694912,56.9105029 50.2608694,56.9105029 C52.0474308,56.9105029 53.500809,55.4568947 53.500809,53.6704483 L53.500809,47.1771131 C54.220885,47.7729786 55.1865068,48.0598129 56.168345,47.8866082 C57.0451793,47.7320351 57.8051637,47.2424386 58.3083314,46.5081014 C58.811499,45.7737641 58.9939045,44.8880741 58.8216199,44.014575 Z M24.3824113,15.1611598 L24.3824113,12.0262242 L24.3824113,8.51187135 L31.163846,8.51187135 C31.4694269,8.51187135 31.7624717,8.39019103 31.97823,8.1738577 L34.231271,5.91449123 C35.5123645,4.62994737 37.1299766,3.76530409 38.9098674,3.41440936 L44.4595478,2.32009162 C44.72177,2.26856725 44.9873275,2.32308187 45.2076862,2.47408967 C45.4280448,2.62509747 45.5749123,2.85316179 45.6212612,3.11618908 C45.7111988,3.62602729 45.3877914,4.12183431 44.8851988,4.24512476 L42.5789084,4.81062768 C41.8514717,4.98889279 41.3885575,5.65801949 41.4783801,6.4015575 C41.5682027,7.14509552 42.1769493,7.68483626 42.9260078,7.68483626 L53.6704483,7.68483626 C54.1887973,7.68483626 54.610423,8.106577 54.610423,8.62481092 C54.610423,9.10509162 54.2482573,9.50164522 53.7826979,9.55730994 L47.4173684,9.56467057 C46.7822846,9.56467057 46.267271,10.0795692 46.267271,10.714768 C46.267271,11.3499669 46.7822846,11.8648655 47.4173684,11.8648655 L55.6443606,11.8575049 C56.1627096,11.8575049 56.5843353,12.2792456 56.5843353,12.7974795 C56.5843353,13.3157135 56.1627096,13.7374542 55.6443606,13.7374542 L47.4173684,13.7374542 C46.7822846,13.7374542 46.267271,14.2523528 46.267271,14.8875517 C46.267271,15.5227505 46.7822846,16.0376491 47.4173684,16.0376491 L53.7831579,16.0376491 C54.2484873,16.0935439 54.610423,16.4900975 54.610423,16.9701481 C54.610423,17.4883821 54.1887973,17.9101228 53.6704483,17.9101228 L47.4173684,17.9101228 C46.7822846,17.9101228 46.267271,18.4250214 46.267271,19.0602203 C46.267271,19.6954191 46.7822846,20.2103177 47.4173684,20.2103177 L51.5990078,20.2103177 C52.0643372,20.2660975 52.4266179,20.6626511 52.4266179,21.1429318 C52.4266179,21.6611657 52.0049922,22.0827914 51.4867583,22.0827914 L39.872154,22.0827914 C37.4390078,22.0827914 35.152729,21.133961 33.4347135,19.411 L31.97846,17.9506062 C31.7627018,17.7342729 31.4696569,17.6125926 31.164076,17.6125926 L24.3824113,17.6125926 L24.3824113,15.1611598 Z M5.91437622,24.6537193 C4.62971735,23.3727407 3.76518908,21.7550136 3.41440936,19.9751228 L2.31997661,14.4255575 C2.26822222,14.1634503 2.32296686,13.8977778 2.47397466,13.6774191 C2.62498246,13.4570604 2.85304678,13.310193 3.11607407,13.2638441 C3.62648733,13.1741365 4.12160429,13.4973138 4.24489474,14.0000214 L4.81028265,16.3060819 C4.98843275,17.0336335 5.65801949,17.4957427 6.40109747,17.4067251 C7.14475049,17.3170175 7.68449123,16.7081559 7.68449123,15.9592125 L7.68449123,5.21477193 C7.68449123,4.69653801 8.10611696,4.27479727 8.62446589,4.27479727 C9.10463158,4.27479727 9.50107018,4.63684795 9.55696491,5.10217739 L9.56432554,11.4678519 C9.56432554,12.1030507 10.0793392,12.6179493 10.714423,12.6179493 C11.3495068,12.6179493 11.8645205,12.1030507 11.8645205,11.4678519 L11.8645205,5.21477193 C11.8645205,5.14473099 11.8615302,5.07549513 11.8571598,5.00648928 L11.8571598,3.24085965 C11.8571598,2.72262573 12.2787856,2.301 12.7971345,2.301 C13.3154834,2.301 13.7371092,2.72262573 13.7371092,3.24085965 L13.7371092,5.00660429 C13.7327388,5.07549513 13.7297485,5.144846 13.7297485,5.21488694 L13.7371092,11.4679669 C13.7371092,12.1031657 14.2521228,12.6180643 14.8872066,12.6180643 C15.5222904,12.6180643 16.0373041,12.1031657 16.0373041,11.4679669 L16.0373041,5.10217739 C16.0931988,4.63684795 16.4897524,4.27479727 16.9698031,4.27479727 C17.488152,4.27479727 17.9097778,4.69653801 17.9097778,5.21477193 C17.9097778,5.21477193 17.9051774,10.8097661 17.9097778,10.8516296 L17.9097778,11.4679669 C17.9097778,12.1031657 18.4247914,12.6180643 19.0598752,12.6180643 C19.6949591,12.6180643 20.2099727,12.1031657 20.2099727,11.4679669 L20.2099727,7.28598246 C20.2658674,6.82065302 20.6624211,6.45860234 21.1424717,6.45860234 C21.6608207,6.45860234 22.0824464,6.88034308 22.0824464,7.398577 L22.0824464,19.0130663 C22.0824464,21.4109045 21.1085439,23.7573333 19.41077,25.4505068 L17.9503762,26.9067602 C17.7339279,27.1225185 17.6123626,27.4155634 17.6123626,27.7211442 L17.6123626,34.502694 L15.3122827,34.502694 L15.3122827,31.4490702 C15.3122827,30.8139864 14.797269,30.2989727 14.1621852,30.2989727 C13.5271014,30.2989727 13.0120877,30.8139864 13.0120877,31.4490702 L13.0120877,34.502694 L8.51187135,34.502694 L8.51187135,27.7211442 C8.51187135,27.4155634 8.39019103,27.1225185 8.1738577,26.9067602 L5.91437622,24.6537193 Z M34.502924,50.3730039 L27.7211442,50.3730039 L27.7211442,50.3731189 C27.4155634,50.3731189 27.1225185,50.4947992 26.9067602,50.7110175 L24.6537193,52.970384 C23.3726257,54.2551579 21.7548986,55.1196862 19.9751228,55.4703509 L14.4254425,56.5647836 C14.1632203,56.616653 13.8976628,56.5619084 13.6773041,56.4107856 C13.4569454,56.2596628 13.310078,56.0317135 13.263729,55.7686862 C13.1737914,55.258963 13.4971988,54.7631559 13.9997914,54.6399805 L16.3063119,54.0744776 C17.0336335,53.8960975 17.4964327,53.2270858 17.4064951,52.4835478 C17.3167875,51.7400097 16.7079259,51.200384 15.9589825,51.200384 L5.21477193,51.200384 C4.696423,51.200384 4.27479727,50.7787583 4.27479727,50.2604094 C4.27479727,49.7800136 4.63719298,49.383345 5.10286745,49.3277953 L11.4679669,49.3205497 C12.1030507,49.3205497 12.6180643,48.8055361 12.6180643,48.1704522 C12.6180643,47.5353684 12.1030507,47.0203548 11.4679669,47.0203548 L3.24097466,47.0276004 C2.72262573,47.0276004 2.301,46.6059747 2.301,46.0876257 C2.301,45.5693918 2.72262573,45.1477661 3.24097466,45.1477661 L11.4679669,45.1477661 C12.1030507,45.1477661 12.6180643,44.6327524 12.6180643,43.9976686 C12.6180643,43.3625848 12.1030507,42.8475712 11.4679669,42.8475712 L5.10286745,42.8475712 C4.63719298,42.7920214 4.27479727,42.3953528 4.27479727,41.9149571 C4.27479727,41.3967232 4.696423,40.9750975 5.21477193,40.9750975 L11.4679669,40.9750975 C12.1030507,40.9750975 12.6180643,40.4600838 12.6180643,39.825 C12.6180643,39.1899162 12.1030507,38.6749025 11.4679669,38.6749025 L7.28667251,38.6749025 C6.82111306,38.6193528 6.45871735,38.2226842 6.45871735,37.7422885 C6.45871735,37.2239396 6.88034308,36.8023138 7.398577,36.8023138 L19.0130663,36.8023138 C21.4460975,36.8023138 23.7323762,37.7512593 25.4505068,39.4741053 L26.9067602,40.934499 C27.1225185,41.1509474 27.4155634,41.2725127 27.7211442,41.2725127 L34.502924,41.2725127 L34.502924,50.3730039 Z M34.5380019,38.9731228 L28.1984347,38.9731228 L27.0792749,37.8507427 C25.1394055,35.9053528 22.6217271,34.7480097 19.9120975,34.5380019 L19.9120975,28.1984347 L21.0344776,27.0792749 C22.9492749,25.169883 24.1285848,22.597575 24.3454932,19.9119825 L30.6866706,19.9119825 L31.8058304,21.0343626 C33.7456998,22.9797524 36.2634932,24.1369805 38.9731228,24.3471033 L38.9731228,30.6867856 L37.8507427,31.8059454 C35.9053528,33.7455848 34.7480097,36.2634932 34.5380019,38.9731228 Z M56.4109006,45.2075712 C56.2598928,45.4279298 56.0318285,45.5747973 55.7686862,45.6212612 C55.2583879,45.7116589 54.7631559,45.3877914 54.6400955,44.8850838 L54.0745926,42.5786784 C53.8962125,41.8511267 53.2259357,41.3891326 52.4835478,41.4783801 C51.7400097,41.5682027 51.200384,42.1769493 51.200384,42.9258928 L51.200384,53.6703333 C51.200384,54.1886823 50.7787583,54.610308 50.2605244,54.610308 C49.7801287,54.610308 49.38346,54.2479123 49.3279103,53.7822378 L49.3206647,47.4172534 C49.3206647,46.7821696 48.8056511,46.2671559 48.1705673,46.2671559 C47.5354834,46.2671559 47.0204698,46.7821696 47.0204698,47.4172534 L47.0277154,55.6443606 C47.0277154,56.1625945 46.6060897,56.5842203 46.0877407,56.5842203 C45.5695068,56.5842203 45.1478811,56.1625945 45.1478811,55.6443606 L45.1478811,47.4172534 C45.1478811,46.7821696 44.6328674,46.2671559 43.9977836,46.2671559 C43.3626998,46.2671559 42.8476862,46.7821696 42.8476862,47.4172534 L42.8476862,53.7822378 C42.7921365,54.2479123 42.3954678,54.610308 41.9150721,54.610308 C41.3967232,54.610308 40.9750975,54.1886823 40.9750975,53.6703333 L40.9750975,47.4172534 C40.9750975,46.7821696 40.4600838,46.2671559 39.825,46.2671559 C39.1899162,46.2671559 38.6749025,46.7821696 38.6749025,47.4172534 L38.6749025,51.5992378 C38.6190078,52.0645673 38.2224542,52.4266179 37.7424035,52.4266179 C37.2240546,52.4266179 36.8024288,52.0049922 36.8024288,51.4866433 L36.8024288,46.8593411 L36.8024288,43.7244055 L36.8024288,39.872154 C36.8024288,37.4391228 37.7513743,35.1528441 39.4742203,33.4345984 L40.934614,31.978345 C41.1510624,31.7625867 41.2726277,31.4695419 41.2726277,31.163961 L41.2726277,24.3822963 L43.7234854,24.3822963 L45.7085536,24.3822963 L45.7085536,27.8708869 C45.7085536,28.5060858 46.2235673,29.0209844 46.8586511,29.0209844 C47.4937349,29.0209844 48.0087485,28.5060858 48.0087485,27.8708869 L48.0087485,24.3822963 L50.3726589,24.3822963 L50.3726589,31.163961 C50.3726589,31.4695419 50.4943392,31.7625867 50.7105575,31.978345 L52.969924,34.231386 C54.2546979,35.5124795 55.1192261,37.1302066 55.4698908,38.9100975 L56.5643236,44.4596628 C56.616653,44.721655 56.5620234,44.9873275 56.4109006,45.2075712 Z" id="Shape"></path>
                    <path d="M47.672115,31.3838596 C47.4581969,31.1698265 47.1613567,31.0468811 46.8589961,31.0468811 C46.5565205,31.0468811 46.2597953,31.1698265 46.0459922,31.3838596 C45.8320741,31.5977778 45.7088986,31.8943879 45.7088986,32.1981287 C45.7088986,32.5006043 45.8319591,32.7973294 46.0459922,33.0112476 C46.2597953,33.2250507 46.5565205,33.347076 46.8589961,33.347076 C47.1614717,33.347076 47.4581969,33.2250507 47.672115,33.0112476 C47.8860331,32.7961793 48.0090936,32.5006043 48.0090936,32.1981287 C48.0090936,31.895653 47.8861481,31.5989279 47.672115,31.3838596 Z" id="Path"></path>
                    <path d="M14.974614,26.3097446 C14.7606959,26.0946764 14.4639708,25.9727661 14.1614951,25.9727661 C13.8590195,25.9727661 13.5622943,26.0946764 13.3483762,26.3097446 C13.1345731,26.5236628 13.0113977,26.8192378 13.0113977,27.1228635 C13.0113977,27.4253392 13.1344581,27.7220643 13.3483762,27.9359825 C13.5622943,28.1499006 13.8590195,28.272961 14.1614951,28.272961 C14.4639708,28.272961 14.7606959,28.1499006 14.974614,27.9359825 C15.1884172,27.7220643 15.3115926,27.4253392 15.3115926,27.1228635 C15.3115926,26.8192378 15.1885322,26.5236628 14.974614,26.3097446 Z" id="Path"></path>
                </g>
                <text id="Étendre-son-territoi" font-family="Montserrat-Medium, Montserrat" font-size="20" font-weight="400" fill="#008CCE">
                    <tspan x="770.83" y="646">Étendre son </tspan>
                    <tspan x="787.75" y="670">territoire</tspan>
                </text>
                <text id="Être-valorisé" font-family="Montserrat-Medium, Montserrat" font-size="20" font-weight="400" fill="#008CCE">
                    <tspan x="852.02" y="431">Être valorisé</tspan>
                </text>
                <g id="light-bulb" transform="translate(494.000000, 664.000000)" fill="#008CCE" fill-rule="nonzero">
                    <path d="M32.0000439,39 C32.5530491,39 33,38.5519936 33,38.0000422 L33,24.0000469 L35.9999854,24.0000469 C38.756925,24.0000469 41,21.7570851 41,19.0000234 C41,16.2430789 38.7570422,14 35.9999854,14 C33.2430457,14 30.9999707,16.2429617 30.9999707,19.0000234 L30.9999707,22.0000141 L27.0000293,22.0000141 L27.0000293,19.0000234 C27.0000293,16.2430789 24.7570715,14 22.0000146,14 C19.243075,14 17,16.2429617 17,19.0000234 C17,21.7569679 19.2429578,24.0000469 22.0000146,24.0000469 L25,24.0000469 L25,38.0000422 C25,38.5519936 25.4480056,39 25.9999561,39 C26.5519065,39 26.9999121,38.5519936 26.9999121,38.0000422 L26.9999121,24.0000469 L30.9998535,24.0000469 L30.9998535,38.0000422 C31.0000879,38.5519936 31.4470388,39 32.0000439,39 Z M33,19.0000328 C33,17.3460442 34.3460091,16.0000328 35.9999854,16.0000328 C37.6539617,16.0000328 38.9999707,17.3460442 38.9999707,19.0000234 C38.9999707,20.6540026 37.6539617,22.0000141 35.9999854,22.0000141 L33,22.0000141 L33,19.0000328 Z M25.0001172,22.0000141 L22.0001318,22.0000141 C20.3461555,22.0000141 19.0001465,20.6540026 19.0001465,19.0000328 C19.0001465,17.3460442 20.3461555,16.0000328 22.0001318,16.0000328 C23.6541081,16.0000328 25.0001172,17.3460442 25.0001172,19.0000234 L25.0001172,22.0000141 Z" id="Shape"></path>
                    <path d="M7.36759835,1.69337532 L11.3085545,4.77551149 C11.5020674,4.92704405 11.7368406,5 11.9705279,5 C12.2639341,5 12.5562545,4.8838775 12.759057,4.65759039 C13.1244876,4.25177991 13.0679056,3.646549 12.6323808,3.30605041 L8.69154534,0.223801828 C8.25602059,-0.115797463 7.60743858,-0.0629634127 7.24104282,0.341835345 C6.87549158,0.748545122 6.9320736,1.35287673 7.36759835,1.69337532 Z" id="Path"></path>
                    <path d="M8.3117334,10.9072973 L3.40277691,9.06487499 C2.86033116,8.86222495 2.26154649,9.15002843 2.06289058,9.70959014 C1.86643924,10.2691519 2.14543934,10.8879672 2.68788509,11.0917543 L7.59684158,12.9341766 C7.71490834,12.9783958 7.83517968,13 7.95422625,13 C8.38068733,13 8.78191837,12.727231 8.93660543,12.2895878 C9.13428153,11.7298998 8.85417915,11.1110844 8.3117334,10.9072973 Z" id="Path"></path>
                    <path d="M47.0302995,5 C47.2628427,5 47.4975571,4.92617409 47.6900566,4.77560069 L51.632075,1.69277896 C52.0674906,1.35241566 52.1250233,0.748324187 51.7587195,0.341776018 C51.3963958,-0.0619629466 50.7470115,-0.116573895 50.3095455,0.223789401 L46.367527,3.30661113 C45.9321115,3.64697443 45.8755436,4.25106591 46.2408826,4.65761408 C46.4436343,4.8830247 46.7358814,5 47.0302995,5 Z" id="Path"></path>
                    <path d="M5.99974881,19 L1.00025119,19 C0.448137853,19 0,19.4480253 0,20 C0,20.5519747 0.448137853,21 1.00025119,21 L5.99974881,21 C6.55186215,21 7,20.5519747 7,20 C7,19.4480253 6.55186215,19 5.99974881,19 Z" id="Path"></path>
                    <path d="M56.9361685,9.70921016 C56.7397486,9.15091395 56.1388554,8.86090307 55.5975984,9.0657801 L50.6883242,10.9089154 C50.1449855,11.1126557 49.8659075,11.7313287 50.0634295,12.2907617 C50.2180919,12.7284306 50.6182792,13 51.0456518,13 C51.1636997,13 51.2849314,12.9795376 51.4019997,12.9341918 L56.3122535,11.0910564 C56.8546126,10.8873162 57.1346702,10.2686432 56.9361685,9.70921016 Z" id="Path"></path>
                    <path d="M29.5,0 C18.7476753,0 10,8.82245898 10,19.6667051 C10,27.966 13.2272056,34.157082 20.158528,39.150418 C20.1916627,39.174041 20.2404507,39.203541 20.2765561,39.2231309 C20.3272865,39.2506719 21.3763997,39.8415937 21.6396491,41.4995859 C20.5388915,41.923418 19.7500571,42.992332 19.7500571,44.25 C19.7500571,45.0052461 20.0328447,45.6945781 20.4968447,46.2167051 C20.0327304,46.738832 19.7500571,47.4281641 19.7500571,48.1834102 C19.7500571,48.9386562 20.0328447,49.627873 20.4968447,50.1501152 C20.0327304,50.6722422 19.7500571,51.3615742 19.7500571,52.1168203 C19.7500571,53.7432383 21.0624198,55.0668203 22.6750514,55.0668203 C23.2132047,55.0668203 23.6500114,54.6262793 23.6500114,54.0835254 C23.6500114,53.5407715 23.2132047,53.1002305 22.6750514,53.1002305 C22.1378122,53.1002305 21.7000914,52.6587676 21.7000914,52.1169355 C21.7000914,51.5751035 22.1378122,51.1336406 22.6750514,51.1336406 L32.4249943,51.1336406 C32.9641759,51.1336406 33.3999543,50.6930996 33.3999543,50.1503457 C33.3999543,49.6075918 32.9641759,49.1670508 32.4249943,49.1670508 L22.6750514,49.1670508 C22.1378122,49.1670508 21.7000914,48.7255879 21.7000914,48.1837559 C21.7000914,47.6419238 22.1378122,47.2004609 22.6750514,47.2004609 L32.4249943,47.2004609 C32.9641759,47.2004609 33.3999543,46.7599199 33.3999543,46.217166 C33.3999543,45.6744121 32.9641759,45.2338711 32.4249943,45.2338711 L22.6750514,45.2338711 C22.1378122,45.2338711 21.7000914,44.7924082 21.7000914,44.2505762 C21.7000914,43.7087441 22.1378122,43.2672812 22.6750514,43.2672812 L32.4249943,43.2672812 C32.9641759,43.2672812 33.3999543,42.8267402 33.3999543,42.2839863 C33.3999543,41.7412324 32.9641759,41.3006914 32.4249943,41.3006914 L23.583742,41.3006914 C23.2385698,38.8246504 21.6474187,37.7518184 21.2486597,37.5197363 C14.817557,32.8715273 11.9501485,27.3639004 11.9501485,19.6672812 C11.9501485,9.90773633 19.8232962,1.96728125 29.5001143,1.96728125 C39.1769323,1.96728125 47.05008,9.90773633 47.05008,19.6672812 C47.05008,27.3637852 44.1825573,32.8715273 37.7515688,37.5197363 C37.3031078,37.7802812 35.3501028,39.1029414 35.3501028,42.2839863 C35.3501028,42.8267402 35.7858813,43.2672812 36.3250628,43.2672812 C36.8632161,43.2672812 37.3000229,43.7087441 37.3000229,44.2505762 C37.3000229,44.7924082 36.8632161,45.2338711 36.3250628,45.2338711 C35.7858813,45.2338711 35.3501028,45.6744121 35.3501028,46.217166 C35.3501028,46.7599199 35.7858813,47.2004609 36.3250628,47.2004609 C36.8632161,47.2004609 37.3000229,47.6419238 37.3000229,48.1837559 C37.3000229,48.7255879 36.8632161,49.1670508 36.3250628,49.1670508 C35.7858813,49.1670508 35.3501028,49.6075918 35.3501028,50.1503457 C35.3501028,50.6930996 35.7858813,51.1336406 36.3250628,51.1336406 C36.8632161,51.1336406 37.3000229,51.5751035 37.3000229,52.1169355 C37.3000229,52.6774355 36.8808118,53.1002305 36.3250628,53.1002305 L26.5750057,53.1002305 C26.0368525,53.1002305 25.6000457,53.5407715 25.6000457,54.0835254 L25.6000457,56.05 C25.6000457,57.676418 26.9124084,59 28.52504,59 L30.4750743,59 C32.0877059,59 33.4000686,57.676418 33.4000686,56.05 L33.4000686,55.0667051 L36.3250628,55.0667051 C37.9660303,55.0667051 39.2500571,53.7706641 39.2500571,52.1167051 C39.2500571,51.361459 38.9672696,50.6722422 38.5031553,50.15 C38.9672696,49.627873 39.2500571,48.938541 39.2500571,48.1832949 C39.2500571,47.4280488 38.9672696,46.738832 38.5031553,46.2165898 C38.9672696,45.6944629 39.2500571,45.0051309 39.2500571,44.2498848 C39.2500571,42.9922168 38.4612227,41.9233027 37.3595511,41.4994707 C37.6228005,39.8415937 38.6708854,39.2515937 38.7108756,39.2290078 C38.7566929,39.2064219 38.8005678,39.1798027 38.841472,39.1503027 C45.7717661,34.1569668 49,27.9658848 49,19.6665898 C49,8.82245898 40.2523247,0 29.5,0 Z M31.4500343,56.05 C31.4500343,56.591832 31.0132275,57.0332949 30.4750743,57.0332949 L28.52504,57.0332949 C27.9878008,57.0332949 27.55008,56.591832 27.55008,56.05 L27.55008,55.0667051 L31.4500343,55.0667051 L31.4500343,56.05 Z" id="Shape"></path>
                    <path d="M58.0000335,19 L52.9999665,19 C52.4469556,19 52,19.4480253 52,20 C52,20.5519747 52.4469556,21 52.9999665,21 L58.0000335,21 C58.5530444,21 59,20.5519747 59,20 C59,19.4480253 58.5530444,19 58.0000335,19 Z" id="Path"></path>
                </g>
                <g id="runner" transform="translate(491.000000, 0.000000)" fill="#008CCE" fill-rule="nonzero">
                    <path d="M24.2254247,48.4586255 L5.26642887,48.4586255 C4.68506904,48.4586255 4.21319247,48.9305021 4.21319247,49.5118619 C4.21319247,50.0932218 4.68506904,50.5650983 5.26642887,50.5650983 L24.2254247,50.5650983 C24.8067845,50.5650983 25.2786611,50.0932218 25.2786611,49.5118619 C25.2786611,48.9305021 24.8067845,48.4586255 24.2254247,48.4586255 Z" id="Path"></path>
                    <path d="M3.15983264,37.9257678 L11.5860941,37.9257678 C12.167454,37.9257678 12.6393305,37.4538912 12.6393305,36.8725314 C12.6393305,36.2911715 12.167454,35.819295 11.5860941,35.819295 L3.15983264,35.819295 C2.5784728,35.819295 2.10659623,36.2911715 2.10659623,36.8725314 C2.10659623,37.4538912 2.5784728,37.9257678 3.15983264,37.9257678 Z" id="Path"></path>
                    <path d="M18.9589958,43.1921967 C18.9589958,42.6108368 18.4871192,42.1389603 17.9057594,42.1389603 L1.0532364,42.1389603 C0.471876569,42.1389603 0,42.6108368 0,43.1921967 C0,43.7735565 0.471876569,44.2454331 1.0532364,44.2454331 L17.905636,44.2454331 C18.4871192,44.2454331 18.9589958,43.7735565 18.9589958,43.1921967 Z" id="Path"></path>
                    <path d="M53.7171548,44.2454331 L47.3974895,44.2454331 C46.8161297,44.2454331 46.3442531,44.7173096 46.3442531,45.2986695 C46.3442531,45.8800293 46.8161297,46.3519059 47.3974895,46.3519059 L53.7171548,46.3519059 C57.5595607,46.3519059 60.5307908,49.0050544 61.013159,52.6715711 L43.6203787,52.6715711 L9.9155795,18.966772 L25.8147218,3.06762971 C26.6878724,5.83988912 28.6943661,11.2325879 31.9069038,14.4451255 C35.5059038,18.0452364 41.7518808,18.7794038 44.2376569,18.9288787 L44.2376569,27.3930335 L41.7508933,27.3930335 C41.3854142,26.7663745 40.7134561,26.3397971 39.9371987,26.3397971 C38.7754665,26.3397971 37.8306025,27.2845377 37.8306025,28.4463933 C37.8306025,29.6081255 38.7753431,30.5529895 39.9371987,30.5529895 C40.7134561,30.5529895 41.3854142,30.1264121 41.7508933,29.4997531 L44.2376569,29.4997531 L44.2376569,35.8194184 L41.7508933,35.8194184 C41.3854142,35.1927594 40.7134561,34.766182 39.9371987,34.766182 C38.7754665,34.766182 37.8306025,35.7109226 37.8306025,36.8727782 C37.8306025,38.0346339 38.7753431,38.9793745 39.9371987,38.9793745 C40.7134561,38.9793745 41.3854142,38.5527971 41.7508933,37.9261381 L44.2376569,37.9261381 L44.2376569,38.9793745 C44.2376569,39.2584519 44.348251,39.5270377 44.5462343,39.7240335 L46.6528305,41.8306297 C47.0647197,42.2425188 47.7303828,42.2425188 48.1421485,41.8306297 C48.5540377,41.418864 48.5540377,40.7530774 48.1421485,40.3413117 L46.3442531,38.5434163 L46.3442531,17.9135356 C46.3442531,17.3321757 45.8723766,16.8602992 45.2910167,16.8602992 C45.21091,16.8602992 37.2566485,16.8161109 33.3963452,12.9558075 C29.4423577,9.00182008 27.3736548,0.886357741 27.353659,0.805140167 C27.2609623,0.437562762 26.9786757,0.146882845 26.6131967,0.0456694561 C26.2456192,-0.0533221757 25.8548368,0.0488786611 25.5873619,0.316353556 L7.68258996,18.2211255 C7.68258996,18.2211255 7.68147908,18.2211255 7.68147908,18.2222364 C7.68049163,18.2222364 7.68049163,18.2233473 7.68049163,18.2233473 L6.2416569,19.6631695 C4.92822803,20.9756109 4.96723222,23.3169728 6.32386192,24.6736025 L39.2798054,57.629546 C39.4187887,57.7685293 40.6996318,58.9914833 42.7072364,58.9914833 L60.0368201,58.9914833 C61.8084247,58.9914833 63.1966527,57.6032552 63.1966527,55.8316506 L63.1966527,53.7250544 C63.1966527,48.4091297 59.0330795,44.2454331 53.7171548,44.2454331 Z M61.0900565,55.8315272 C61.0900565,56.4318954 60.6371883,56.8847636 60.0368201,56.8847636 L42.7072364,56.8847636 C41.5580941,56.8847636 40.7702343,56.1401046 40.7692469,56.1401046 L7.81330335,23.1840377 C7.26983682,22.6405711 7.22984519,21.6526297 7.73109833,21.1522406 L8.42626151,20.4559665 L42.4397615,54.4694665 C42.6367573,54.6674498 42.9053431,54.7780439 43.1844205,54.7780439 L61.0901799,54.7780439 L61.0901799,55.8315272 L61.0900565,55.8315272 Z" id="Shape"></path>
                    <path d="M33.7049226,26.3397971 L33.7049226,38.9791276 C33.7049226,39.5604874 34.1767992,40.032364 34.758159,40.032364 C35.3395188,40.032364 35.8113954,39.5604874 35.8113954,38.9791276 L35.8113954,26.3397971 C35.8113954,25.7584372 35.3395188,25.2865607 34.758159,25.2865607 C34.1767992,25.2865607 33.7049226,25.7583138 33.7049226,26.3397971 Z" id="Path"></path>
                    <path d="M41.0673326,22.9545795 C41.58241,22.9545795 42.0331799,22.5765105 42.1079791,22.050818 C42.1911715,21.4757531 41.7908849,20.9416674 41.2148326,20.8584749 C34.1821067,19.8484393 28.1763264,15.3898661 25.1502929,8.9333159 C24.9038013,8.40663598 24.2781297,8.18125105 23.7494749,8.4266318 C23.222795,8.67411088 22.9964226,9.30089331 23.2427908,9.82744979 C26.5711067,16.9286799 33.1783661,21.8327155 40.9157594,22.9439644 C40.9672301,22.9513703 41.0167259,22.9545795 41.0673326,22.9545795 Z" id="Path"></path>
                </g>
                <g id="branch" transform="translate(645.000000, 197.000000)">
                    <path d="M0.5,145.743483 L137.839076,0.5 L3,0.5 C1.61928813,0.5 0.5,1.61928813 0.5,3 L0.5,145.743483 Z" id="Rectangle" stroke="#008CCE"></path>
                    <path d="M4,1 L139,1 L139,146 L1,146 L1,4 C1,2.34314575 2.34314575,1 4,1 Z" id="Rectangle" fill="#FFFFFF"></path>
                </g>
                <g id="branch-copy-3" transform="translate(714.500000, 519.500000) scale(1, -1) translate(-714.500000, -519.500000) translate(645.000000, 446.000000)">
                    <path d="M0.5,145.743483 L137.839076,0.5 L3,0.5 C1.61928813,0.5 0.5,1.61928813 0.5,3 L0.5,145.743483 Z" id="Rectangle" stroke="#008CCE"></path>
                    <path d="M4,1 L139,1 L139,146 L1,146 L1,4 C1,2.34314575 2.34314575,1 4,1 Z" id="Rectangle" fill="#FFFFFF"></path>
                </g>
                <g id="sun" transform="translate(803.000000, 152.000000)" fill="#008CCE" fill-rule="nonzero">
                    <path d="M54.6989,14.7559 C54.402425,14.2459925 53.7485575,14.072975 53.23865,14.36945 L48.02305,17.38435 C47.5131425,17.680825 47.340125,18.3346925 47.6366,18.8446 C47.933075,19.3545075 48.5869425,19.527525 49.09685,19.23105 L54.31245,16.21615 C54.8223575,15.9195275 54.995375,15.2658075 54.6989,14.7559 Z" id="Path"></path>
                    <path d="M54.31245,42.65405 L49.09685,39.63915 C48.5869425,39.342675 47.933075,39.5156925 47.6366,40.0256 C47.340125,40.5355075 47.5131425,41.189375 48.02305,41.48585 L53.23865,44.50075 C53.7485575,44.797225 54.402425,44.6242075 54.6989,44.1143 C54.995375,43.604245 54.8223575,42.950525 54.31245,42.65405 Z" id="Path"></path>
                    <path d="M29.3671025,50.53645 C28.7756275,50.492495 28.260705,50.9363225 28.21675,51.5277975 C28.2127675,51.58075 28.2127675,51.63385 28.21675,51.6868025 L28.21675,57.7107025 C28.172795,58.3021775 28.6166225,58.8171 29.2080975,58.861055 C29.7995725,58.90501 30.314495,58.4611825 30.35845,57.8697075 C30.3624325,57.816755 30.3624325,57.763655 30.35845,57.7107025 L30.35845,51.6868025 C30.4022575,51.095475 29.95843,50.580405 29.3671025,50.53645 Z" id="Path"></path>
                    <path d="M10.54625,17.38435 L5.33065,14.36945 C4.8207425,14.072975 4.166875,14.2459925 3.8704,14.7559 C3.573925,15.2658075 3.7469425,15.919675 4.25685,16.21615 L9.47245,19.23105 C9.9823575,19.527525 10.636225,19.3545075 10.9327,18.8446 C11.229175,18.334545 11.0561575,17.680825 10.54625,17.38435 Z" id="Path"></path>
                    <path d="M29.3671025,0.00295 C28.7756275,-0.041005 28.260705,0.4028225 28.21675,0.9942975 C28.2127675,1.04725 28.2127675,1.10035 28.21675,1.1533025 L28.21675,7.1772025 C28.219995,7.76558 28.6962725,8.2418575 29.28465,8.2451025 C29.8777475,8.2451025 30.35845,7.7644 30.35845,7.1713025 L30.35845,1.15345 C30.4022575,0.561975 29.95843,0.046905 29.3671025,0.00295 Z" id="Path"></path>
                    <path d="M19.07765,9.61995 L16.06865,4.40435 C15.772175,3.8944425 15.1183075,3.721425 14.6084,4.0179 C14.0984925,4.314375 13.925475,4.9682425 14.22195,5.47815 L17.23095,10.69375 C17.527425,11.2036575 18.1812925,11.376675 18.6912,11.0802 C19.2011075,10.7835775 19.374125,10.1298575 19.07765,9.61995 Z" id="Path"></path>
                    <path d="M29.443655,19.90365 C29.3907025,19.8996675 29.3376025,19.8996675 29.28465,19.90365 C24.022145,19.90365 19.75615,24.169645 19.75615,29.43215 C19.75615,30.0252475 20.2368525,30.50595 20.82995,30.50595 C21.4206875,30.502705 21.89785,30.0228875 21.89785,29.43215 C21.894605,25.35584 25.19654,22.048595 29.27285,22.04535 C29.2768325,22.04535 29.2806675,22.04535 29.28465,22.04535 C29.876125,22.089305 30.3910475,21.6454775 30.4350025,21.0540025 C30.4789575,20.4625275 30.03513,19.9474575 29.443655,19.90365 Z" id="Path"></path>
                    <path d="M58.55455,29.34955 C58.5151675,28.8192875 58.0936125,28.397585 57.5632025,28.3582025 L51.5393025,28.3582025 C50.9478275,28.3142475 50.432905,28.758075 50.38895,29.34955 C50.344995,29.941025 50.7888225,30.4559475 51.3802975,30.4999025 C51.43325,30.503885 51.4864975,30.503885 51.53945,30.4999025 L57.56335,30.4999025 C58.1546775,30.456095 58.598505,29.941025 58.55455,29.34955 Z" id="Path"></path>
                    <path d="M7.188855,28.36425 C7.1359025,28.3602675 7.0828025,28.3602675 7.02985,28.36425 L1.00595,28.36425 C0.414475,28.408205 -0.0293525,28.923275 0.0146025,29.5146025 C0.053985,30.044865 0.47554,30.4665675 1.00595,30.50595 L7.02985,30.50595 C7.621325,30.549905 8.1362475,30.1060775 8.1802025,29.5146025 C8.2241575,28.9231275 7.78033,28.4080575 7.188855,28.36425 Z" id="Path"></path>
                    <path d="M29.2889275,13.67325 C20.5855425,13.67207 13.5291425,20.7265525 13.527815,29.4299375 C13.527225,33.61112 15.18837,37.6212025 18.1453025,40.57725 C21.09663,43.5359525 25.1055325,45.19636 29.2845025,45.19105 C37.9878875,45.19223 45.044435,38.1377475 45.045615,29.4343625 C45.046795,20.7309775 37.9923125,13.67443 29.2889275,13.67325 Z M38.9133025,39.07865 C33.595485,44.3964675 24.97352,44.3964675 19.6557025,39.07865 C17.09761,36.5205575 15.6625825,33.049735 15.6673025,29.43215 C15.66214,25.81958 17.09761,22.3540675 19.6557025,19.80335 L19.6557025,19.82105 C24.97352,14.5032325 33.595485,14.5032325 38.9133025,19.82105 C44.2312675,25.1388675 44.2312675,33.7608325 38.9133025,39.07865 Z" id="Shape"></path>
                    <path d="M44.350005,53.39087 C44.34912,53.3892475 44.348235,53.387625 44.3472025,53.38615 L41.3323025,48.17055 C41.0358275,47.6606425 40.38196,47.487625 39.8720525,47.7841 C39.362145,48.080575 39.1891275,48.7344425 39.4856025,49.24435 L42.5005025,54.45995 C42.7957975,54.9692675 43.4477475,55.143465 43.9578025,54.84935 C44.46889,54.5547925 44.6445625,53.90181 44.350005,53.39087 Z" id="Path"></path>
                    <path d="M43.9963,4.0179 C43.4863925,3.721425 42.832525,3.8944425 42.53605,4.40435 L39.52115,9.61995 C39.22261,10.1286775 39.39312,10.7829875 39.9017,11.08138 C39.9027325,11.08197 39.9036175,11.08256 39.90465,11.08315 L39.90465,11.08315 C40.414115,11.380215 41.0679825,11.2080825 41.3650475,10.69847 C41.3659325,10.6968475 41.366965,10.695225 41.36785,10.69375 L44.38275,5.47815 C44.679225,4.968095 44.5062075,4.314375 43.9963,4.0179 Z" id="Path"></path>
                    <path d="M18.6971,47.7841 C18.1871925,47.487625 17.533325,47.6606425 17.23685,48.17055 L14.22195,53.38615 C13.925475,53.8960575 14.0984925,54.549925 14.6084,54.8464 C15.1183075,55.142875 15.772175,54.9698575 16.06865,54.45995 L19.08355,49.24435 C19.380025,48.734295 19.2070075,48.080575 18.6971,47.7841 Z" id="Path"></path>
                    <path d="M10.9327,40.0197 C10.636225,39.5097925 9.9823575,39.336775 9.47245,39.63325 L4.25685,42.64815 C3.7469425,42.944625 3.573925,43.5984925 3.8704,44.1084 C4.166875,44.6183075 4.8207425,44.791325 5.33065,44.49485 L10.54625,41.47995 C11.0561575,41.1833275 11.229175,40.5296075 10.9327,40.0197 Z" id="Path"></path>
                </g>
                <g id="eyeglasses" transform="translate(176.000000, 170.000000)" fill="#008CCE" fill-rule="nonzero">
                    <path d="M59,10 L56.82,10 C55.869,4.334 50.97,0 45.072,0 C39.25,0 34.376,4.119 33.247,9.579 C32.276,8.765 31.168,8.333 30,8.333 C28.833,8.333 27.726,8.765 26.755,9.578 C25.639,4.118 20.825,0 15.072,0 C8.756,0 3.565,4.851 3.051,11 L1,11 C0.447,11 0,11.448 0,12 C0,12.552 0.447,13 1,13 L3.051,13 C3.565,19.149 8.756,24 15.072,24 C21.539,24 26.808,18.793 26.983,12.329 C27.836,11.044 28.898,10.333 30,10.333 C31.102,10.333 32.164,11.045 33.017,12.329 C33.195,18.793 38.528,24 45.072,24 C51.649,24 57,18.617 57,12 L59,12 C59.553,12 60,11.552 60,11 C60,10.448 59.553,10 59,10 Z M15.072,22 C9.519,22 5,17.514 5,12 C5,6.486 9.519,2 15.072,2 C20.64,2 25,6.393 25,12 C25,17.607 20.64,22 15.072,22 Z M45.072,22 C39.519,22 35,17.514 35,12 C35,6.486 39.519,2 45.072,2 C50.64,2 55,6.393 55,12 C55,17.607 50.64,22 45.072,22 Z" id="Shape"></path>
                </g>
                <g id="connection" transform="translate(803.000000, 551.000000)" fill="#008CCE" fill-rule="nonzero">
                    <path d="M45.6531206,31.4246757 L39.2835738,23.3162848 C41.5453222,20.997499 42.9111538,17.9514553 43.1380769,14.7201933 L53.0010125,14.7201933 L53.0010125,15.7996112 C50.717921,16.26879 49.0784324,18.2771206 49.0758565,20.6079272 C49.0764699,23.3176341 51.2735759,25.5138815 53.9832827,25.5133909 C56.6929896,25.5129002 58.889237,23.3156715 58.8887464,20.6059647 C58.8882557,18.27479 57.2476632,16.2658462 54.9635904,15.7996112 L54.9635904,13.7389044 C54.9635904,13.1969875 54.5242183,12.7576154 53.9823015,12.7576154 L43.1380769,12.7576154 C42.9462349,10.0388316 41.9448295,7.43964241 40.2629002,5.29491268 L41.6317983,3.92601455 L53.1815696,3.92601455 C53.7234865,5.4589106 55.4055385,6.2622183 56.9383119,5.72017879 C58.4712079,5.17826195 59.2745156,3.49620998 58.7324761,1.96343659 C58.1904366,0.430663202 56.5086299,-0.372767152 54.9758565,0.169149688 C54.1374678,0.46549896 53.4780416,1.12504782 53.1816923,1.96331393 L41.2256674,1.96331393 C40.9653805,1.96331393 40.7158877,2.06683992 40.531896,2.2508316 L38.9471143,3.83561331 C33.4938462,-1.41624532 24.8155717,-1.25298337 19.5635904,4.20028482 C17.3314033,6.5180894 15.9856881,9.54732848 15.7621996,12.7574927 L7.51937214,12.7574927 L4.3114158,5.54219751 C5.74544699,4.78746362 6.29619543,3.01329314 5.5415842,1.57926195 C4.78697297,0.145230769 3.01267983,-0.40539501 1.57864865,0.349216216 C0.144740125,1.10382744 -0.406008316,2.87799792 0.348602911,4.31202911 C0.74516632,5.06565904 1.44973181,5.60990644 2.27916632,5.80309771 L5.98353222,14.1381663 C6.14127443,14.492289 6.49282121,14.720316 6.88043035,14.7200707 L15.7620769,14.7200707 C15.9880187,17.9141663 17.3274782,20.9277048 19.5469085,23.2356965 L11.2628669,31.519738 C5.90637838,30.7171663 0.91345738,34.4087755 0.110885655,39.765264 C-0.691686071,45.1217526 2.99992308,50.1146736 8.35641164,50.9172453 C8.518079,50.9415322 8.68035967,50.9616486 8.84300832,50.9777173 L8.84300832,55.9342079 C8.84300832,56.4761247 9.28238046,56.9154969 9.8242973,56.9154969 L18.8364553,56.9154969 C19.3783721,58.4483929 21.0604241,59.2517006 22.5931975,58.7096611 C24.1259709,58.1676216 24.9294012,56.4856923 24.3873617,54.9529189 C23.8453222,53.4201455 22.1633929,52.6167152 20.6306195,53.1587547 C19.7922308,53.455104 19.1328046,54.1146528 18.8364553,54.9529189 L10.8055863,54.9529189 L10.8055863,50.9777173 C16.1950707,50.4404615 20.1286902,45.6358254 19.5914345,40.2462183 C19.2278669,36.5992578 16.8609979,33.4592557 13.4550665,32.1055676 L21.0109917,24.5496424 C25.9316653,28.4240166 32.8578482,28.4518607 37.8096778,24.6173514 L43.253869,31.5472141 C35.7365821,32.5958441 30.4926965,39.5398129 31.5413264,47.0569771 C32.5899563,54.574264 39.5339252,59.8181497 47.0510894,58.7695198 C54.5683763,57.7208898 59.812262,50.776921 58.763632,43.2597568 C57.8426923,36.6569085 52.3154595,31.667422 45.6531206,31.4246757 Z M56.9261684,20.6079272 C56.9261684,22.2338004 55.6081746,23.5517942 53.9823015,23.5517942 C52.3564283,23.5517942 51.0384345,22.2338004 51.0384345,20.6079272 C51.0384345,18.9820541 52.3564283,17.6640603 53.9823015,17.6640603 C55.6081746,17.6640603 56.9261684,18.9820541 56.9261684,20.6079272 Z M55.9448794,1.96343659 C56.4867963,1.96343659 56.9261684,2.40280873 56.9261684,2.94472557 C56.9261684,3.48664241 56.4867963,3.92601455 55.9448794,3.92601455 C55.4029626,3.92601455 54.9635904,3.48664241 54.9635904,2.94472557 C54.9635904,2.40280873 55.4029626,1.96343659 55.9448794,1.96343659 Z M2.95527443,3.92601455 C2.41335759,3.92601455 1.97398545,3.48664241 1.97398545,2.94472557 C1.97398545,2.40280873 2.41335759,1.96343659 2.95527443,1.96343659 C3.49719127,1.96343659 3.93656341,2.40280873 3.93656341,2.94472557 C3.93656341,3.48664241 3.49719127,3.92601455 2.95527443,3.92601455 Z M21.5997651,54.9530416 C22.1416819,54.9530416 22.5810541,55.3924137 22.5810541,55.9343306 C22.5810541,56.4762474 22.1416819,56.9156195 21.5997651,56.9156195 C21.0578482,56.9156195 20.6184761,56.4762474 20.6184761,55.9343306 C20.6184761,55.3924137 21.0578482,54.9530416 21.5997651,54.9530416 Z M13.7494532,48.003553 C11.3243202,49.4197983 8.32427443,49.4197983 5.89914137,48.003553 L5.89914137,46.1214407 C5.89914137,43.9536507 7.65650728,42.1962848 9.8242973,42.1962848 C11.9920873,42.1962848 13.7494532,43.9536507 13.7494532,46.1214407 L13.7494532,48.003553 Z M7.86171933,38.2711289 C7.86171933,37.1871726 8.74034096,36.3085509 9.8242973,36.3085509 C10.9082536,36.3085509 11.7868753,37.1871726 11.7868753,38.2711289 C11.7868753,39.3550852 10.9082536,40.2337069 9.8242973,40.2337069 C8.74034096,40.2337069 7.86171933,39.3549626 7.86171933,38.2711289 Z M15.7120312,36.0053326 C16.9805925,37.4437796 17.6787796,39.2969439 17.6746091,41.2149958 C17.6742412,43.1218857 16.9761767,44.9626611 15.7120312,46.3903139 L15.7120312,46.1214407 C15.7108046,43.9760977 14.5427027,42.001131 12.6631663,40.9667297 C14.16,39.3986299 14.102104,36.9140062 12.5340042,35.4171726 C10.9659044,33.9204615 8.48128067,33.9782349 6.98444699,35.5463347 C5.53667775,37.0630395 5.53667775,39.4499023 6.98444699,40.9666071 C5.10527859,42.0012536 3.93766736,43.9760977 3.93656341,46.1213181 L3.93656341,46.3901913 C1.06886902,43.1384449 1.38018295,38.1776611 4.63180665,35.3099667 C7.88355301,32.4422723 12.8443368,32.7535863 15.7120312,36.0053326 Z M36.3190998,23.2809584 C32.2225863,26.255 26.6775676,26.255 22.5810541,23.2809584 L22.5810541,20.9023139 C22.5810541,19.1139148 24.0309085,17.6640603 25.8193077,17.6640603 L27.9977692,17.6640603 L26.5739189,21.2241767 C26.4280748,21.5888482 26.513815,22.0055281 26.7917651,22.2829875 L28.754343,24.2455655 C29.1375364,24.6286362 29.7586923,24.6286362 30.1418857,24.2455655 L32.1044636,22.2829875 C32.3824137,22.0054054 32.4681538,21.5888482 32.3223098,21.2241767 L30.8994407,17.6640603 L33.0808462,17.6640603 C34.8692453,17.6640603 36.3190998,19.1139148 36.3190998,20.9023139 L36.3190998,23.2809584 L36.3190998,23.2809584 Z M29.5905239,7.34580665 C29.5537256,7.40713721 29.5237963,7.47214761 29.5012266,7.53997921 C29.0046944,9.02859459 26.3239356,9.59283576 24.5978482,9.75671102 C24.861079,6.46816632 26.4085717,4.90718087 29.4501996,4.90718087 C32.2350977,4.90718087 33.7678711,6.22407069 34.2065073,8.97167983 L30.9368524,7.00910187 C30.4719667,6.7304158 29.86921,6.88116632 29.5905239,7.34580665 Z M30.8032744,9.21908732 L34.3104012,11.3239522 C33.9169044,13.7261476 30.9563555,15.7014823 29.4500769,15.7014823 C27.2614345,15.3287152 25.4407755,13.8110291 24.6800312,11.7252994 C26.3599979,11.5869376 29.3931622,11.0776486 30.8032744,9.21908732 Z M30.2606216,21.3527256 L29.4500769,22.1642516 L28.6395322,21.3527256 L29.4500769,19.3244012 L30.2606216,21.3527256 Z M33.7314407,15.7466216 C35.2622516,14.5419667 36.2041663,12.7395842 36.3190998,10.7950374 C36.3190998,4.30675468 32.5833326,2.94472557 29.4500769,2.94472557 C26.3168212,2.94472557 22.5810541,4.30675468 22.5810541,10.7950374 C22.6951289,12.7406881 23.6371663,14.5442973 25.1687131,15.7495655 C22.5675613,16.070079 20.6146736,18.2814137 20.6184761,20.9023139 L20.6184761,21.4989376 C16.3168732,16.6214407 16.7837214,9.18020374 21.661341,4.87860083 C26.5389605,0.576997921 33.9800748,1.04384615 38.2816778,5.92134304 C42.2068337,10.3721019 42.2068337,17.0480561 38.2816778,21.498815 L38.2816778,20.9021913 C38.2869522,18.2803098 36.3336965,16.0671351 33.7314407,15.7466216 Z M52.0197235,54.6822058 C47.92321,57.6562474 42.3781913,57.6562474 38.2816778,54.6822058 L38.2816778,52.3035613 C38.2816778,50.5151622 39.7315322,49.0653077 41.5199314,49.0653077 L43.6983929,49.0653077 L42.2745426,52.6254241 C42.1286985,52.9900956 42.2144387,53.4066528 42.4923888,53.6842349 L44.4549667,55.6468129 C44.8381601,56.0298836 45.459316,56.0298836 45.8425094,55.6468129 L47.8050873,53.6842349 C48.0830374,53.4066528 48.1687775,52.9900956 48.0229335,52.6254241 L46.6000644,49.0653077 L48.7814699,49.0653077 C50.569869,49.0653077 52.0197235,50.5151622 52.0197235,52.3035613 L52.0197235,54.6822058 L52.0197235,54.6822058 Z M46.5038981,40.6203347 L46.5038981,40.6193534 L50.0110249,42.7242183 C49.6175281,45.127395 46.6569792,47.1027297 45.1507006,47.1027297 C42.9620582,46.7299626 41.1413992,45.2122765 40.3806549,43.1265468 C42.0606216,42.988185 45.0937859,42.4787734 46.5038981,40.6203347 Z M40.2982266,41.1580811 L40.2982266,41.1580811 C40.5612121,37.8697817 42.1087048,36.3085509 45.1507006,36.3085509 C47.9355988,36.3085509 49.4683721,37.6254407 49.9070083,40.3730499 L46.6373534,38.4104719 C46.1725904,38.1316632 45.5698337,38.2824137 45.2910249,38.7471767 C45.2542266,38.8085073 45.2242973,38.8735177 45.2017277,38.9413493 C44.7051954,40.4299647 42.0243139,40.9942058 40.2982266,41.1580811 Z M45.9612453,52.753973 L45.1507006,53.565499 L44.3401559,52.753973 L45.1507006,50.7256486 L45.9612453,52.753973 Z M53.9823015,52.9030062 L53.9823015,52.3034387 C53.9875759,49.6814345 52.0343202,47.4683825 49.4320644,47.1477464 C50.9628753,45.9430915 51.90479,44.1407089 52.0197235,42.1961622 C52.0197235,35.7078794 48.2839563,34.3458503 45.1507006,34.3458503 C42.0174449,34.3458503 38.2816778,35.7078794 38.2816778,42.1961622 C38.3957526,44.1418129 39.33779,45.945422 40.8693368,47.1506902 C38.268185,47.4712037 36.3152973,49.6825385 36.3190998,52.3034387 L36.3190998,52.9000624 C32.0275551,48.018763 32.5056881,40.5825551 37.3869875,36.2910104 C42.2682869,31.9994657 49.7044948,32.4775988 53.9960395,37.3588981 C55.8869834,39.5096383 56.9287443,42.2761372 56.9261684,45.1399064 C56.9255551,48.0003638 55.8785198,50.7615884 53.9823015,52.9030062 Z" id="Shape"></path>
                </g>
                <g id="value" transform="translate(888.000000, 344.000000)" fill="#008CCE" fill-rule="nonzero">
                    <path d="M52.2902835,27.9273125 L45.8781756,18.025456 C45.3812353,17.2580014 44.5386122,16.7997388 43.6242742,16.7997388 L15.3334366,16.7997388 C14.4204799,16.7997388 13.5786627,17.2568503 13.0814921,18.022348 L6.64946974,27.9254707 C5.99217774,28.937309 6.09370691,30.2733039 6.89638591,31.1741738 L27.4626036,54.2634258 C27.9716308,54.8348439 28.7023645,55.1626841 29.4676319,55.1626841 C29.4677471,55.1626841 29.4676319,55.1626841 29.4677471,55.1626841 C30.2328994,55.1626841 30.9638634,54.834959 31.4728905,54.2635409 L52.0414104,31.1729075 C52.8429383,30.2730736 52.9452733,28.9384601 52.2902835,27.9273125 Z M42.3253455,19.1018724 L36.9327884,27.4406171 L31.5370082,19.1018724 L42.3253455,19.1018724 Z M34.817137,28.4089429 L24.1181269,28.4089429 L29.4676319,20.141683 L34.817137,28.4089429 Z M27.3982557,19.1021026 L22.017325,27.4179399 L16.6382361,19.1021026 L27.3982557,19.1021026 L27.3982557,19.1021026 Z M14.5096921,20.0500535 L19.9165231,28.4089429 L9.08064435,28.4089429 L14.5096921,20.0500535 Z M9.56687927,30.7111916 L21.1523702,30.7111916 L27.2781935,50.5951378 L9.56687927,30.7111916 Z M29.4676319,49.8823616 L23.5613281,30.7111916 L35.3739358,30.7111916 L29.4676319,49.8823616 Z M31.6569553,50.5958285 L37.7830088,30.7113067 L49.3695357,30.7113067 L31.6569553,50.5958285 Z M39.0484398,28.4089429 L44.450321,20.0558091 L49.8593392,28.4089429 L39.0484398,28.4089429 Z" id="Shape"></path>
                    <path d="M3.49170546,28.4089429 L1.15112434,28.4089429 C0.515473479,28.4089429 0,28.9243013 0,29.5600672 C0,30.1958332 0.515473479,30.7111916 1.15112434,30.7111916 L3.49170546,30.7111916 C4.12735632,30.7111916 4.64282979,30.1958332 4.64282979,29.5600672 C4.64282979,28.9243013 4.12735632,28.4089429 3.49170546,28.4089429 Z" id="Path"></path>
                    <path d="M57.7864418,28.4089429 L55.4458607,28.4089429 C54.8102098,28.4089429 54.2947363,28.9243013 54.2947363,29.5600672 C54.2947363,30.1958332 54.8102098,30.7111916 55.4458607,30.7111916 L57.7864418,30.7111916 C58.4220927,30.7111916 58.9375661,30.1958332 58.9375661,29.5600672 C58.9375661,28.9243013 58.4220927,28.4089429 57.7864418,28.4089429 Z" id="Path"></path>
                    <path d="M50.32094,8.72851541 C49.8713108,8.27900136 49.1426491,8.27900136 48.6929049,8.72851541 L44.8692151,12.5522051 C44.4197011,13.0017192 44.4197011,13.7306111 44.8692151,14.1801252 C45.0941448,14.4049397 45.3887176,14.5172895 45.6832903,14.5172895 C45.9779781,14.5172895 46.2724357,14.4048246 46.4972503,14.1801252 L50.32094,10.3564354 C50.7704541,9.9069214 50.7704541,9.17814458 50.32094,8.72851541 Z" id="Path"></path>
                    <path d="M14.1180796,12.5317151 L10.294505,8.70791028 C9.84510602,8.25839623 9.11644431,8.25839623 8.66646981,8.70791028 C8.21695575,9.15742434 8.21695575,9.88631627 8.66646981,10.3358303 L12.4901595,14.15952 C12.7149741,14.3843346 13.0095468,14.4966844 13.3041195,14.4966844 C13.5986923,14.4966844 13.893265,14.3842195 14.1180796,14.15952 C14.5675936,13.7101211 14.5675936,12.9811141 14.1180796,12.5317151 Z" id="Path"></path>
                    <path d="M29.4980216,0.0912841601 C28.8623708,0.0912841601 28.3468973,0.606642526 28.3468973,1.2424085 L28.3468973,8.74405559 C28.3468973,9.37982156 28.8622557,9.89517993 29.4980216,9.89517993 C30.1336725,9.89517993 30.649146,9.37982156 30.649146,8.74405559 L30.649146,1.2424085 C30.649146,0.606757639 30.1336725,0.0912841601 29.4980216,0.0912841601 Z" id="Path"></path>
                    <path d="M30.311291,11.8243492 C30.097297,11.6102401 29.8003069,11.4870698 29.4975612,11.4870698 C29.1948155,11.4870698 28.8978254,11.6102401 28.6837163,11.8243492 C28.4696071,12.0384583 28.3464368,12.3354484 28.3464368,12.6381941 C28.3464368,12.9420909 28.469492,13.2379299 28.6837163,13.452039 C28.8978254,13.6672993 29.1948155,13.7893185 29.4975612,13.7893185 C29.8003069,13.7893185 30.097297,13.6672993 30.311291,13.452039 C30.5265512,13.2379299 30.6486855,12.9409398 30.6486855,12.6381941 C30.6486855,12.3354484 30.5265512,12.0385734 30.311291,11.8243492 Z" id="Path"></path>
                </g>
                <g id="out" transform="translate(218.500000, 575.500000) scale(-1, 1) translate(-218.500000, -575.500000) translate(195.000000, 546.000000)" fill="#008CCE" fill-rule="nonzero">
                    <path d="M39.3136911,0 L19.6884913,0 C15.9477391,0 12.9053771,3.07073423 12.9053771,6.85338983 L12.9053771,15.9398823 C12.9053771,16.7107304 13.5299997,17.3357895 14.3012843,17.3357895 C15.0716959,17.3357895 15.6967551,16.7107304 15.6967551,15.9398823 L15.6967551,6.86735763 C15.6867157,5.79925728 16.1018214,4.77087767 16.8504084,4.00919594 C17.5989954,3.24664127 18.6203909,2.81407584 19.6884913,2.80578243 L39.3272224,2.80578243 C41.5323894,2.80578243 43.3193951,4.63381866 43.3193951,6.86735763 L43.3193951,52.090739 C43.3289979,53.1588393 42.9143288,54.1872189 42.1657419,54.9493371 C41.416282,55.7110189 40.3957593,56.1440207 39.3272224,56.1527506 L19.6884913,56.1527506 C17.4828879,56.1527506 15.6967551,54.3238415 15.6967551,52.090739 L15.6967551,43.0740855 C15.6967551,42.3032375 15.0716959,41.6786147 14.3012843,41.6786147 C13.5299997,41.6786147 12.9053771,42.3032375 12.9053771,43.0740855 L12.9053771,52.090739 C12.9053771,55.8733946 15.9477391,58.9441288 19.6884913,58.9441288 L39.3272224,58.9441288 C43.0679747,58.9441288 46.1107733,55.8733946 46.1107733,52.090739 L46.1107733,6.86735763 C46.1107733,3.08470203 43.0679747,9.52773214e-15 39.3136911,0 Z" id="Path"></path>
                    <path d="M4.46096709,30.8745191 L23.6527285,30.8745191 C24.4231401,30.8745191 25.0486357,30.2498965 25.0486357,29.4790483 C25.0486357,28.7077636 24.4231401,28.0831409 23.6527285,28.0831409 L4.46096709,28.0831409 L7.68491069,24.2725497 C8.18207709,23.683283 8.10743673,22.802002 7.51729705,22.3048355 C6.92759384,21.8076689 6.04631274,21.8823094 5.54914622,22.4720126 L0.384551049,28.5715776 L0.343084106,28.613481 C0.329116303,28.6278852 0.314712034,28.6558208 0.301180697,28.6693522 C0.283720943,28.6828835 0.273245091,28.7038352 0.273245091,28.7252234 C0.259277288,28.7391912 0.244873019,28.7675633 0.231341682,28.7810946 C0.217373879,28.7950624 0.217373879,28.822998 0.203842653,28.8374023 C0.189438273,28.8509336 0.189438273,28.8784328 0.17547047,28.892837 C0.161502667,28.9068048 0.161502667,28.9347404 0.147534864,28.9482718 C0.134003638,28.9766439 0.134003638,28.9906117 0.119599258,29.0181108 C0.119599258,29.0325151 0.105631455,29.0600142 0.105631455,29.0744185 C0.105631455,29.1023541 0.0916636515,29.1163219 0.0916636515,29.1442575 C0.0916636515,29.1577888 0.0776958485,29.1861609 0.0776958485,29.1996922 C0.0776958485,29.2276278 0.0641646231,29.2559999 0.0641646231,29.2839355 L0.0641646231,29.3258389 C0.0497602424,29.4135742 0.0497602424,29.5030555 0.0641646231,29.5907907 L0.0641646231,29.6326941 C0.0641646231,29.6606297 0.0776958485,29.6881289 0.0776958485,29.7160645 C0.0776958485,29.7304688 0.0916636515,29.7579679 0.0916636515,29.7723722 C0.0916636515,29.7998713 0.105631455,29.8142756 0.105631455,29.8422112 C0.105631455,29.8557425 0.119599258,29.8841146 0.119599258,29.8976459 C0.134003638,29.9255815 0.134003638,29.9395493 0.147534864,29.9674849 C0.161502667,29.9814527 0.161502667,30.0093883 0.17547047,30.0237926 C0.189438273,30.0512918 0.189438273,30.0652596 0.203842653,30.0792274 C0.217373879,30.0931952 0.217373879,30.1211308 0.231341682,30.1346621 C0.244873019,30.1490664 0.259277288,30.177002 0.273245091,30.1909698 C0.287212894,30.2045011 0.287212894,30.2189054 0.301180697,30.2464045 C0.314712034,30.2608088 0.329116303,30.2887444 0.343084106,30.3027122 L0.384551049,30.3441792 L5.54914622,36.4441805 C6.05242359,37.0247174 6.93021274,37.0919374 7.51555096,36.594771 C8.10176222,36.0967314 8.17727574,35.2202518 7.68491069,34.6296757 L4.46096709,30.8745191 Z" id="Path"></path>
                </g>
            </g>
        </g>
    </g>
</svg>